<svg width="302" height="257" viewBox="0 0 302 257" fill="none" xmlns="http://www.w3.org/2000/svg">
<path d="M1 232H35L35 238H46.5L46.5 232H71.5V256H1L1 232Z" fill="#D9D9D9"/>
<path d="M71.5 182V206H46.5V198.5H35V204.5H1L1 182H71.5Z" fill="#D9D9D9"/>
<path d="M1 141.5H35V146.5H46.5V141.5H71.5V165H1L1 141.5Z" fill="#D9D9D9"/>
<path d="M71.5 51H46.5V58H35V52L1 51L1 75H71.5V51Z" fill="#D9D9D9"/>
<path d="M1 25H35V17.5H46.5V25H71.5L71.5 1H1L1 25Z" fill="#D9D9D9"/>
<path d="M232 232H258V239H267.5V232L301 232V256H232V232Z" fill="#D9D9D9"/>
<path d="M232 205.5L258 205.5V200H267.5V205.5H301V181.5L232 181.5V205.5Z" fill="#D9D9D9"/>
<path d="M232 141.5L258 141.5V149.5H270V141.5H301V165L232 165L232 141.5Z" fill="#D9D9D9"/>
<path d="M232 115.5H258V109.5H270V115.5L301 115.5V91L232 91V115.5Z" fill="#D9D9D9"/>
<path d="M232 51H258V57H270V51L301 51L301 75L232 75V51Z" fill="#D9D9D9"/>
<path d="M232 25H258V18.5H270V25L301 25V0.5L232 0.5V25Z" fill="#D9D9D9"/>
<path d="M1 115L34.5 114.5V108H46.5V114.5H71V91.5H1L1 115Z" fill="#D9D9D9"/>
<path d="M30 214H25.5L25.5 223H30V230.5H1L1 207H30V214Z" fill="#D9D9D9"/>
<path d="M272 206.5V213H276.5V223H272V231H301V206.5H272Z" fill="#D9D9D9"/>
<path d="M276 132.5H281.5V124.5L276 124.5V116.5L301 116.5V140.5H276V132.5Z" fill="#D9D9D9"/>
<path d="M22 133.5H28.5V140.5H1L1 116H28.5V123.5H22L22 133.5Z" fill="#D9D9D9"/>
<path d="M1 232H35L35 238H46.5L46.5 232H71.5V256H1L1 232Z" stroke="black" stroke-opacity="0.1"/>
<path d="M71.5 182V206H46.5V198.5H35V204.5H1L1 182H71.5Z" stroke="black" stroke-opacity="0.1"/>
<path d="M1 141.5H35V146.5H46.5V141.5H71.5V165H1L1 141.5Z" stroke="black" stroke-opacity="0.1"/>
<path d="M71.5 51H46.5V58H35V52L1 51L1 75H71.5V51Z" stroke="black" stroke-opacity="0.1"/>
<path d="M1 25H35V17.5H46.5V25H71.5L71.5 1H1L1 25Z" stroke="black" stroke-opacity="0.1"/>
<path d="M232 232H258V239H267.5V232L301 232V256H232V232Z" stroke="black" stroke-opacity="0.1"/>
<path d="M232 205.5L258 205.5V200H267.5V205.5H301V181.5L232 181.5V205.5Z" stroke="black" stroke-opacity="0.1"/>
<path d="M232 141.5L258 141.5V149.5H270V141.5H301V165L232 165L232 141.5Z" stroke="black" stroke-opacity="0.1"/>
<path d="M232 115.5H258V109.5H270V115.5L301 115.5V91L232 91V115.5Z" stroke="black" stroke-opacity="0.1"/>
<path d="M232 51H258V57H270V51L301 51L301 75L232 75V51Z" stroke="black" stroke-opacity="0.1"/>
<path d="M232 25H258V18.5H270V25L301 25V0.5L232 0.5V25Z" stroke="black" stroke-opacity="0.1"/>
<path d="M1 115L34.5 114.5V108H46.5V114.5H71V91.5H1L1 115Z" stroke="black" stroke-opacity="0.1"/>
<path d="M30 214H25.5L25.5 223H30V230.5H1L1 207H30V214Z" stroke="black" stroke-opacity="0.1"/>
<path d="M272 206.5V213H276.5V223H272V231H301V206.5H272Z" stroke="black" stroke-opacity="0.1"/>
<path d="M276 132.5H281.5V124.5L276 124.5V116.5L301 116.5V140.5H276V132.5Z" stroke="black" stroke-opacity="0.1"/>
<path d="M22 133.5H28.5V140.5H1L1 116H28.5V123.5H22L22 133.5Z" stroke="black" stroke-opacity="0.1"/>
<path d="M258 231V239H267.5V231M267.5 206V199.5H258V206M258 141V149H270V141M258 116V109.5H270V116M258 50.5V57.5H270V50.5M258 25.5V18.5H270V25.5M46.5 25.5L46.5 17.5H35L35 25.5M35 50.5V58H46.5V50.5M35 116V108.5H46.5L46.5 116M35 141V146.5H46.5V141M35 231.5V238.5H46.5V231.5M35 206.5V198.5H46.5L46.5 206.5M30.5 223H25.5V214H30.5M272 223H276.5V213H272M276.5 132.5H281V125H276.5M30.5 133.5H22.5V123.5H30.5" stroke="#FF3F00" stroke-width="2"/>
<path d="M73 256V229.5M73 0L73 27.5M73 27.5H14L14 48.5H73M73 27.5V48.5M73 48.5V118M73 118H32.5L32.5 139H73M73 118V139M73 139L73 208.5M73 208.5H32.5L32.5 229.5H73M73 208.5V229.5M229.5 256V229M229.5 0.5V27.5M229.5 229H270V208L229.5 208M229.5 229V208M229.5 208L229.5 139M229.5 139L274.5 139V118H229.5M229.5 139V118M229.5 118V48.5M229.5 48.5H288.5V27.5H229.5M229.5 48.5V27.5" stroke="#00FFFF" stroke-width="6"/>
<path d="M71 227.5H34.5V210.5H71V227.5Z" fill="#FFA8D3"/>
<path d="M268 227.5H231.5V209.5H268V227.5Z" fill="#FFA8D3"/>
<path d="M272.5 138.5L231.5 138.5L231.5 119.5L272.5 119.5V138.5Z" fill="#FFA8D3"/>
<path d="M286.5 46.5H231.5V29.5H286.5L286.5 46.5Z" fill="#FFA8D3"/>
<path d="M71 137H34.5V120L71 120V137Z" fill="#FFA8D3"/>
<path d="M71 46.5H15.5L15.5 29.5H71V46.5Z" fill="#FFA8D3"/>
<path d="M231.5 177.5H268.5V168.5H257M231.5 87H268.5V79H257M71 177H33.5V169H48.5M71 86.5H33.5V78.5H48.5M159.5 217V201.5H142.5V208.5" stroke="#FF3F00" stroke-width="3" stroke-dasharray="1 1"/>
<path d="M256.027 247.564C255.782 247.563 255.572 247.503 255.396 247.384C255.221 247.264 255.086 247.091 254.991 246.865C254.898 246.639 254.851 246.366 254.852 246.048C254.852 245.731 254.899 245.461 254.993 245.237C255.087 245.014 255.222 244.844 255.398 244.727C255.574 244.61 255.783 244.551 256.027 244.551C256.27 244.551 256.479 244.61 256.655 244.727C256.831 244.845 256.966 245.015 257.061 245.239C257.156 245.461 257.202 245.731 257.202 246.048C257.202 246.367 257.154 246.64 257.059 246.866C256.966 247.093 256.831 247.266 256.656 247.385C256.481 247.504 256.271 247.564 256.027 247.564ZM256.027 247.054C256.193 247.054 256.327 246.97 256.426 246.803C256.525 246.635 256.575 246.384 256.574 246.048C256.574 245.828 256.551 245.644 256.506 245.497C256.461 245.35 256.398 245.24 256.315 245.166C256.234 245.092 256.138 245.055 256.027 245.055C255.861 245.055 255.729 245.138 255.629 245.304C255.53 245.47 255.479 245.718 255.479 246.048C255.479 246.272 255.501 246.458 255.545 246.608C255.591 246.757 255.655 246.868 255.737 246.943C255.819 247.017 255.916 247.054 256.027 247.054ZM258.906 244.591V247.5H258.291V245.175H258.274L257.607 245.592V245.047L258.328 244.591H258.906ZM259.614 247.5V244.591H260.779C260.993 244.591 261.171 244.623 261.314 244.686C261.457 244.75 261.565 244.838 261.637 244.95C261.709 245.062 261.745 245.191 261.745 245.337C261.745 245.45 261.722 245.55 261.677 245.636C261.631 245.722 261.569 245.792 261.489 245.847C261.411 245.901 261.321 245.939 261.219 245.962V245.99C261.33 245.995 261.434 246.026 261.53 246.084C261.628 246.142 261.707 246.223 261.768 246.327C261.828 246.43 261.858 246.553 261.858 246.696C261.858 246.85 261.82 246.988 261.743 247.109C261.668 247.23 261.555 247.325 261.407 247.395C261.258 247.465 261.075 247.5 260.857 247.5H259.614ZM260.229 246.997H260.731C260.902 246.997 261.027 246.964 261.106 246.899C261.184 246.833 261.224 246.745 261.224 246.635C261.224 246.554 261.204 246.483 261.165 246.422C261.126 246.36 261.071 246.312 260.999 246.277C260.928 246.242 260.843 246.224 260.745 246.224H260.229V246.997ZM260.229 245.808H260.685C260.769 245.808 260.844 245.794 260.91 245.764C260.976 245.734 261.028 245.691 261.066 245.636C261.105 245.581 261.124 245.516 261.124 245.439C261.124 245.334 261.087 245.249 261.012 245.185C260.938 245.12 260.833 245.088 260.697 245.088H260.229V245.808ZM262.259 247.5V244.591H263.406C263.627 244.591 263.815 244.633 263.97 244.717C264.126 244.801 264.244 244.917 264.325 245.065C264.408 245.213 264.449 245.384 264.449 245.577C264.449 245.77 264.407 245.94 264.324 246.088C264.241 246.236 264.12 246.351 263.962 246.433C263.805 246.516 263.614 246.557 263.391 246.557H262.659V246.064H263.291C263.41 246.064 263.507 246.044 263.584 246.003C263.662 245.961 263.719 245.904 263.757 245.831C263.796 245.757 263.816 245.672 263.816 245.577C263.816 245.48 263.796 245.396 263.757 245.324C263.719 245.251 263.662 245.195 263.584 245.155C263.506 245.114 263.408 245.094 263.289 245.094H262.874V247.5H262.259ZM265.972 247.564C265.728 247.563 265.518 247.503 265.341 247.384C265.166 247.264 265.031 247.091 264.937 246.865C264.843 246.639 264.796 246.366 264.797 246.048C264.797 245.731 264.844 245.461 264.938 245.237C265.033 245.014 265.168 244.844 265.343 244.727C265.519 244.61 265.729 244.551 265.972 244.551C266.215 244.551 266.425 244.61 266.6 244.727C266.776 244.845 266.912 245.015 267.006 245.239C267.101 245.461 267.148 245.731 267.147 246.048C267.147 246.367 267.099 246.64 267.005 246.866C266.911 247.093 266.777 247.266 266.601 247.385C266.426 247.504 266.216 247.564 265.972 247.564ZM265.972 247.054C266.139 247.054 266.272 246.97 266.371 246.803C266.471 246.635 266.52 246.384 266.519 246.048C266.519 245.828 266.496 245.644 266.451 245.497C266.406 245.35 266.343 245.24 266.26 245.166C266.179 245.092 266.083 245.055 265.972 245.055C265.806 245.055 265.674 245.138 265.574 245.304C265.475 245.47 265.425 245.718 265.424 246.048C265.424 246.272 265.446 246.458 265.491 246.608C265.536 246.757 265.6 246.868 265.682 246.943C265.765 247.017 265.861 247.054 265.972 247.054Z" fill="black"/>
<path d="M255.15 157.564C254.906 157.563 254.695 157.503 254.519 157.384C254.344 157.264 254.209 157.091 254.114 156.865C254.021 156.639 253.974 156.366 253.975 156.048C253.975 155.731 254.022 155.461 254.116 155.237C254.21 155.014 254.345 154.844 254.521 154.727C254.697 154.61 254.906 154.551 255.15 154.551C255.393 154.551 255.603 154.61 255.778 154.727C255.954 154.845 256.089 155.015 256.184 155.239C256.279 155.461 256.326 155.731 256.325 156.048C256.325 156.367 256.277 156.64 256.183 156.866C256.089 157.093 255.954 157.266 255.779 157.385C255.604 157.504 255.394 157.564 255.15 157.564ZM255.15 157.054C255.317 157.054 255.45 156.97 255.549 156.803C255.648 156.635 255.698 156.384 255.697 156.048C255.697 155.828 255.674 155.644 255.629 155.497C255.584 155.35 255.521 155.24 255.438 155.166C255.357 155.092 255.261 155.055 255.15 155.055C254.984 155.055 254.852 155.138 254.752 155.304C254.653 155.47 254.603 155.718 254.602 156.048C254.602 156.272 254.624 156.458 254.668 156.608C254.714 156.757 254.778 156.868 254.86 156.943C254.942 157.017 255.039 157.054 255.15 157.054ZM256.719 156.989V156.504L257.934 154.591H258.351V155.261H258.104L257.338 156.473V156.496H259.064V156.989H256.719ZM258.115 157.5V156.841L258.127 156.626V154.591H258.703V157.5H258.115ZM259.491 157.5V154.591H260.656C260.87 154.591 261.048 154.623 261.191 154.686C261.334 154.75 261.442 154.838 261.514 154.95C261.586 155.062 261.622 155.191 261.622 155.337C261.622 155.45 261.599 155.55 261.554 155.636C261.508 155.722 261.446 155.792 261.366 155.847C261.288 155.901 261.198 155.939 261.096 155.962V155.99C261.207 155.995 261.311 156.026 261.407 156.084C261.505 156.142 261.584 156.223 261.645 156.327C261.705 156.43 261.735 156.553 261.735 156.696C261.735 156.85 261.697 156.988 261.62 157.109C261.545 157.23 261.432 157.325 261.284 157.395C261.135 157.465 260.952 157.5 260.734 157.5H259.491ZM260.106 156.997H260.608C260.779 156.997 260.904 156.964 260.983 156.899C261.061 156.833 261.1 156.745 261.1 156.635C261.1 156.554 261.081 156.483 261.042 156.422C261.003 156.36 260.948 156.312 260.876 156.277C260.805 156.242 260.72 156.224 260.622 156.224H260.106V156.997ZM260.106 155.808H260.562C260.646 155.808 260.721 155.794 260.787 155.764C260.853 155.734 260.905 155.691 260.943 155.636C260.982 155.581 261.001 155.516 261.001 155.439C261.001 155.334 260.964 155.249 260.889 155.185C260.815 155.12 260.71 155.088 260.574 155.088H260.106V155.808ZM262.136 157.5V154.591H263.283C263.504 154.591 263.692 154.633 263.847 154.717C264.003 154.801 264.121 154.917 264.202 155.065C264.285 155.213 264.326 155.384 264.326 155.577C264.326 155.77 264.284 155.94 264.201 156.088C264.118 156.236 263.997 156.351 263.839 156.433C263.682 156.516 263.491 156.557 263.268 156.557H262.536V156.064H263.168C263.287 156.064 263.384 156.044 263.461 156.003C263.539 155.961 263.596 155.904 263.634 155.831C263.673 155.757 263.692 155.672 263.692 155.577C263.692 155.48 263.673 155.396 263.634 155.324C263.596 155.251 263.539 155.195 263.461 155.155C263.383 155.114 263.285 155.094 263.165 155.094H262.751V157.5H262.136ZM265.849 157.564C265.605 157.563 265.395 157.503 265.218 157.384C265.043 157.264 264.908 157.091 264.814 156.865C264.72 156.639 264.673 156.366 264.674 156.048C264.674 155.731 264.721 155.461 264.815 155.237C264.91 155.014 265.045 154.844 265.22 154.727C265.396 154.61 265.606 154.551 265.849 154.551C266.092 154.551 266.302 154.61 266.477 154.727C266.653 154.845 266.788 155.015 266.883 155.239C266.978 155.461 267.025 155.731 267.024 156.048C267.024 156.367 266.976 156.64 266.882 156.866C266.788 157.093 266.654 157.266 266.478 157.385C266.303 157.504 266.093 157.564 265.849 157.564ZM265.849 157.054C266.016 157.054 266.149 156.97 266.248 156.803C266.348 156.635 266.397 156.384 266.396 156.048C266.396 155.828 266.373 155.644 266.328 155.497C266.283 155.35 266.22 155.24 266.137 155.166C266.056 155.092 265.96 155.055 265.849 155.055C265.683 155.055 265.551 155.138 265.451 155.304C265.352 155.47 265.302 155.718 265.301 156.048C265.301 156.272 265.323 156.458 265.368 156.608C265.413 156.757 265.477 156.868 265.559 156.943C265.642 157.017 265.738 157.054 265.849 157.054Z" fill="black"/>
<path d="M257.355 68.5639C257.111 68.563 256.9 68.5028 256.724 68.3835C256.549 68.2642 256.414 68.0914 256.319 67.8651C256.226 67.6387 256.179 67.3665 256.18 67.0483C256.18 66.7311 256.227 66.4607 256.321 66.2372C256.416 66.0137 256.55 65.8437 256.726 65.7273C256.902 65.6098 257.112 65.5511 257.355 65.5511C257.598 65.5511 257.808 65.6098 257.983 65.7273C258.159 65.8447 258.294 66.0152 258.389 66.2386C258.484 66.4612 258.531 66.7311 258.53 67.0483C258.53 67.3674 258.482 67.6402 258.388 67.8665C258.294 68.0928 258.159 68.2656 257.984 68.3849C257.809 68.5043 257.599 68.5639 257.355 68.5639ZM257.355 68.054C257.522 68.054 257.655 67.9702 257.754 67.8026C257.854 67.6349 257.903 67.3835 257.902 67.0483C257.902 66.8277 257.879 66.6439 257.834 66.4972C257.789 66.3504 257.726 66.2401 257.643 66.1662C257.562 66.0923 257.466 66.0554 257.355 66.0554C257.189 66.0554 257.057 66.1383 256.957 66.304C256.858 66.4697 256.808 66.7178 256.807 67.0483C256.807 67.2718 256.829 67.4583 256.873 67.608C256.919 67.7566 256.983 67.8684 257.065 67.9432C257.148 68.017 257.244 68.054 257.355 68.054ZM259.005 68.5L260.211 66.1136V66.0938H258.806V65.5909H260.847V66.1009L259.64 68.5H259.005ZM261.286 68.5V65.5909H262.451C262.665 65.5909 262.843 65.6226 262.986 65.6861C263.129 65.7495 263.237 65.8376 263.309 65.9503C263.381 66.062 263.417 66.1908 263.417 66.3366C263.417 66.4503 263.394 66.5502 263.349 66.6364C263.303 66.7216 263.241 66.7917 263.161 66.8466C263.082 66.9006 262.992 66.9389 262.891 66.9616V66.9901C263.002 66.9948 263.106 67.026 263.202 67.0838C263.3 67.1416 263.379 67.2225 263.439 67.3267C263.5 67.4299 263.53 67.553 263.53 67.696C263.53 67.8504 263.492 67.9882 263.415 68.1094C263.34 68.2296 263.227 68.3248 263.079 68.3949C262.93 68.465 262.747 68.5 262.529 68.5H261.286ZM261.901 67.9972H262.403C262.574 67.9972 262.699 67.9645 262.778 67.8991C262.856 67.8329 262.895 67.7448 262.895 67.6349C262.895 67.5545 262.876 67.4834 262.837 67.4219C262.798 67.3603 262.743 67.312 262.671 67.277C262.6 67.242 262.515 67.2244 262.417 67.2244H261.901V67.9972ZM261.901 66.8082H262.357C262.441 66.8082 262.516 66.7936 262.581 66.7642C262.648 66.7339 262.7 66.6913 262.738 66.6364C262.777 66.5814 262.796 66.5156 262.796 66.4389C262.796 66.3338 262.759 66.2491 262.684 66.1847C262.61 66.1203 262.505 66.0881 262.368 66.0881H261.901V66.8082ZM263.931 68.5V65.5909H265.078C265.299 65.5909 265.487 65.633 265.642 65.7173C265.798 65.8007 265.916 65.9167 265.997 66.0653C266.08 66.2131 266.121 66.3835 266.121 66.5767C266.121 66.7699 266.079 66.9403 265.996 67.0881C265.913 67.2358 265.792 67.3509 265.634 67.4332C265.477 67.5156 265.286 67.5568 265.063 67.5568H264.331V67.0639H264.963C265.082 67.0639 265.179 67.0436 265.256 67.0028C265.334 66.9612 265.391 66.9039 265.429 66.831C265.468 66.7571 265.487 66.6723 265.487 66.5767C265.487 66.4801 265.468 66.3958 265.429 66.3239C265.391 66.2509 265.334 66.1946 265.256 66.1548C265.178 66.1141 265.08 66.0938 264.96 66.0938H264.546V68.5H263.931ZM267.644 68.5639C267.4 68.563 267.189 68.5028 267.013 68.3835C266.838 68.2642 266.703 68.0914 266.608 67.8651C266.515 67.6387 266.468 67.3665 266.469 67.0483C266.469 66.7311 266.516 66.4607 266.61 66.2372C266.705 66.0137 266.84 65.8437 267.015 65.7273C267.191 65.6098 267.401 65.5511 267.644 65.5511C267.887 65.5511 268.097 65.6098 268.272 65.7273C268.448 65.8447 268.583 66.0152 268.678 66.2386C268.773 66.4612 268.82 66.7311 268.819 67.0483C268.819 67.3674 268.771 67.6402 268.677 67.8665C268.583 68.0928 268.448 68.2656 268.273 68.3849C268.098 68.5043 267.888 68.5639 267.644 68.5639ZM267.644 68.054C267.811 68.054 267.944 67.9702 268.043 67.8026C268.143 67.6349 268.192 67.3835 268.191 67.0483C268.191 66.8277 268.168 66.6439 268.123 66.4972C268.078 66.3504 268.015 66.2401 267.932 66.1662C267.851 66.0923 267.755 66.0554 267.644 66.0554C267.478 66.0554 267.346 66.1383 267.246 66.304C267.147 66.4697 267.097 66.7178 267.096 67.0483C267.096 67.2718 267.118 67.4583 267.162 67.608C267.208 67.7566 267.272 67.8684 267.354 67.9432C267.437 68.017 267.533 68.054 267.644 68.054Z" fill="black"/>
<path d="M255.876 191.564C255.632 191.563 255.422 191.503 255.246 191.384C255.071 191.264 254.936 191.091 254.841 190.865C254.747 190.639 254.701 190.366 254.702 190.048C254.702 189.731 254.749 189.461 254.842 189.237C254.937 189.014 255.072 188.844 255.247 188.727C255.423 188.61 255.633 188.551 255.876 188.551C256.12 188.551 256.329 188.61 256.504 188.727C256.68 188.845 256.816 189.015 256.911 189.239C257.005 189.461 257.052 189.731 257.051 190.048C257.051 190.367 257.004 190.64 256.909 190.866C256.815 191.093 256.681 191.266 256.506 191.385C256.33 191.504 256.121 191.564 255.876 191.564ZM255.876 191.054C256.043 191.054 256.176 190.97 256.276 190.803C256.375 190.635 256.424 190.384 256.423 190.048C256.423 189.828 256.401 189.644 256.355 189.497C256.311 189.35 256.247 189.24 256.165 189.166C256.083 189.092 255.987 189.055 255.876 189.055C255.711 189.055 255.578 189.138 255.479 189.304C255.379 189.47 255.329 189.718 255.328 190.048C255.328 190.272 255.35 190.458 255.395 190.608C255.44 190.757 255.504 190.868 255.587 190.943C255.669 191.017 255.766 191.054 255.876 191.054ZM258.565 191.54C258.353 191.54 258.164 191.503 257.998 191.43C257.833 191.357 257.703 191.255 257.608 191.126C257.513 190.997 257.464 190.847 257.461 190.678H258.081C258.084 190.749 258.108 190.811 258.15 190.865C258.194 190.918 258.252 190.959 258.324 190.989C258.395 191.018 258.476 191.033 258.566 191.033C258.66 191.033 258.743 191.016 258.815 190.983C258.887 190.95 258.943 190.904 258.984 190.845C259.025 190.786 259.045 190.719 259.045 190.642C259.045 190.564 259.023 190.496 258.98 190.436C258.937 190.375 258.876 190.328 258.795 190.294C258.716 190.26 258.621 190.243 258.511 190.243H258.24V189.791H258.511C258.604 189.791 258.686 189.775 258.757 189.743C258.829 189.711 258.885 189.666 258.924 189.609C258.964 189.552 258.984 189.484 258.984 189.408C258.984 189.335 258.967 189.271 258.931 189.216C258.897 189.16 258.849 189.116 258.787 189.085C258.725 189.054 258.653 189.038 258.571 189.038C258.487 189.038 258.411 189.054 258.342 189.084C258.273 189.113 258.217 189.155 258.176 189.21C258.134 189.265 258.112 189.33 258.109 189.403H257.52C257.522 189.236 257.57 189.088 257.663 188.96C257.756 188.832 257.881 188.732 258.038 188.661C258.196 188.588 258.375 188.551 258.574 188.551C258.774 188.551 258.95 188.588 259.1 188.661C259.251 188.733 259.368 188.832 259.451 188.956C259.536 189.079 259.577 189.217 259.576 189.371C259.577 189.534 259.527 189.67 259.424 189.778C259.323 189.887 259.191 189.956 259.028 189.986V190.009C259.242 190.036 259.405 190.11 259.517 190.232C259.629 190.352 259.685 190.502 259.684 190.683C259.685 190.849 259.637 190.996 259.541 191.125C259.445 191.254 259.313 191.355 259.145 191.429C258.976 191.503 258.783 191.54 258.565 191.54ZM260.143 191.5V188.591H261.308C261.522 188.591 261.701 188.623 261.844 188.686C261.987 188.75 262.094 188.838 262.166 188.95C262.238 189.062 262.274 189.191 262.274 189.337C262.274 189.45 262.251 189.55 262.206 189.636C262.161 189.722 262.098 189.792 262.018 189.847C261.94 189.901 261.85 189.939 261.749 189.962V189.99C261.859 189.995 261.963 190.026 262.06 190.084C262.157 190.142 262.236 190.223 262.297 190.327C262.357 190.43 262.388 190.553 262.388 190.696C262.388 190.85 262.349 190.988 262.273 191.109C262.197 191.23 262.085 191.325 261.936 191.395C261.787 191.465 261.604 191.5 261.386 191.5H260.143ZM260.759 190.997H261.26C261.431 190.997 261.556 190.964 261.635 190.899C261.714 190.833 261.753 190.745 261.753 190.635C261.753 190.554 261.733 190.483 261.695 190.422C261.656 190.36 261.6 190.312 261.528 190.277C261.457 190.242 261.373 190.224 261.274 190.224H260.759V190.997ZM260.759 189.808H261.214C261.299 189.808 261.374 189.794 261.439 189.764C261.505 189.734 261.557 189.691 261.595 189.636C261.634 189.581 261.653 189.516 261.653 189.439C261.653 189.334 261.616 189.249 261.541 189.185C261.467 189.12 261.362 189.088 261.226 189.088H260.759V189.808ZM262.788 191.5V188.591H263.936C264.156 188.591 264.344 188.633 264.5 188.717C264.655 188.801 264.773 188.917 264.855 189.065C264.937 189.213 264.978 189.384 264.978 189.577C264.978 189.77 264.937 189.94 264.853 190.088C264.77 190.236 264.649 190.351 264.491 190.433C264.334 190.516 264.144 190.557 263.92 190.557H263.189V190.064H263.821C263.939 190.064 264.037 190.044 264.113 190.003C264.191 189.961 264.249 189.904 264.287 189.831C264.325 189.757 264.345 189.672 264.345 189.577C264.345 189.48 264.325 189.396 264.287 189.324C264.249 189.251 264.191 189.195 264.113 189.155C264.036 189.114 263.937 189.094 263.818 189.094H263.403V191.5H262.788ZM266.501 191.564C266.257 191.563 266.047 191.503 265.871 191.384C265.696 191.264 265.561 191.091 265.466 190.865C265.372 190.639 265.326 190.366 265.327 190.048C265.327 189.731 265.374 189.461 265.467 189.237C265.562 189.014 265.697 188.844 265.872 188.727C266.048 188.61 266.258 188.551 266.501 188.551C266.745 188.551 266.954 188.61 267.129 188.727C267.305 188.845 267.441 189.015 267.536 189.239C267.63 189.461 267.677 189.731 267.676 190.048C267.676 190.367 267.629 190.64 267.534 190.866C267.44 191.093 267.306 191.266 267.131 191.385C266.955 191.504 266.746 191.564 266.501 191.564ZM266.501 191.054C266.668 191.054 266.801 190.97 266.901 190.803C267 190.635 267.049 190.384 267.048 190.048C267.048 189.828 267.026 189.644 266.98 189.497C266.936 189.35 266.872 189.24 266.79 189.166C266.708 189.092 266.612 189.055 266.501 189.055C266.336 189.055 266.203 189.138 266.104 189.304C266.004 189.47 265.954 189.718 265.953 190.048C265.953 190.272 265.975 190.458 266.02 190.608C266.065 190.757 266.129 190.868 266.212 190.943C266.294 191.017 266.391 191.054 266.501 191.054Z" fill="black"/>
<path d="M256.185 100.564C255.941 100.563 255.73 100.503 255.554 100.384C255.379 100.264 255.244 100.091 255.15 99.8651C255.056 99.6387 255.009 99.3665 255.01 99.0483C255.01 98.7311 255.057 98.4607 255.151 98.2372C255.246 98.0137 255.381 97.8437 255.556 97.7273C255.732 97.6098 255.942 97.5511 256.185 97.5511C256.428 97.5511 256.638 97.6098 256.813 97.7273C256.989 97.8447 257.124 98.0152 257.219 98.2386C257.314 98.4612 257.361 98.7311 257.36 99.0483C257.36 99.3674 257.312 99.6402 257.218 99.8665C257.124 100.093 256.989 100.266 256.814 100.385C256.639 100.504 256.429 100.564 256.185 100.564ZM256.185 100.054C256.352 100.054 256.485 99.9702 256.584 99.8026C256.684 99.6349 256.733 99.3835 256.732 99.0483C256.732 98.8277 256.709 98.6439 256.664 98.4972C256.619 98.3504 256.556 98.2401 256.473 98.1662C256.392 98.0923 256.296 98.0554 256.185 98.0554C256.019 98.0554 255.887 98.1383 255.787 98.304C255.688 98.4697 255.638 98.7178 255.637 99.0483C255.637 99.2718 255.659 99.4583 255.703 99.608C255.749 99.7566 255.813 99.8684 255.895 99.9432C255.978 100.017 256.074 100.054 256.185 100.054ZM258.915 100.54C258.765 100.539 258.621 100.514 258.482 100.464C258.343 100.415 258.219 100.335 258.109 100.224C258 100.114 257.912 99.9669 257.848 99.7841C257.785 99.6013 257.753 99.3769 257.753 99.1108C257.754 98.8665 257.782 98.6482 257.837 98.456C257.893 98.2628 257.972 98.099 258.075 97.9645C258.179 97.83 258.304 97.7277 258.449 97.6577C258.594 97.5866 258.756 97.5511 258.936 97.5511C259.13 97.5511 259.302 97.589 259.45 97.6648C259.599 97.7396 259.718 97.8414 259.808 97.9702C259.899 98.099 259.954 98.2434 259.973 98.4034H259.366C259.343 98.3021 259.293 98.2225 259.217 98.1648C259.142 98.107 259.048 98.0781 258.936 98.0781C258.747 98.0781 258.603 98.1605 258.504 98.3253C258.407 98.4901 258.357 98.714 258.355 98.9972H258.375C258.419 98.911 258.477 98.8376 258.551 98.777C258.626 98.7154 258.711 98.6686 258.805 98.6364C258.901 98.6032 259.002 98.5866 259.108 98.5866C259.28 98.5866 259.434 98.6274 259.568 98.7088C259.703 98.7893 259.809 98.9001 259.886 99.0412C259.964 99.1823 260.003 99.3437 260.003 99.5256C260.003 99.7225 259.957 99.8977 259.865 100.051C259.774 100.205 259.647 100.325 259.483 100.412C259.32 100.498 259.131 100.541 258.915 100.54ZM258.912 100.057C259.007 100.057 259.091 100.034 259.166 99.9886C259.241 99.9432 259.3 99.8816 259.342 99.804C259.385 99.7263 259.406 99.6392 259.406 99.5426C259.406 99.446 259.385 99.3594 259.342 99.2827C259.301 99.206 259.243 99.1449 259.169 99.0994C259.095 99.054 259.011 99.0312 258.916 99.0312C258.845 99.0312 258.779 99.0445 258.719 99.071C258.659 99.0975 258.607 99.1345 258.561 99.1818C258.517 99.2292 258.482 99.2841 258.456 99.3466C258.43 99.4081 258.418 99.474 258.418 99.544C258.418 99.6378 258.439 99.7235 258.482 99.8011C258.525 99.8788 258.584 99.9408 258.658 99.9872C258.732 100.034 258.817 100.057 258.912 100.057ZM260.456 100.5V97.5909H261.621C261.835 97.5909 262.013 97.6226 262.156 97.6861C262.299 97.7495 262.407 97.8376 262.479 97.9503C262.551 98.062 262.587 98.1908 262.587 98.3366C262.587 98.4503 262.564 98.5502 262.518 98.6364C262.473 98.7216 262.411 98.7917 262.331 98.8466C262.252 98.9006 262.162 98.9389 262.061 98.9616V98.9901C262.172 98.9948 262.276 99.026 262.372 99.0838C262.47 99.1416 262.549 99.2225 262.609 99.3267C262.67 99.4299 262.7 99.553 262.7 99.696C262.7 99.8504 262.662 99.9882 262.585 100.109C262.509 100.23 262.397 100.325 262.249 100.395C262.1 100.465 261.917 100.5 261.699 100.5H260.456ZM261.071 99.9972H261.572C261.744 99.9972 261.869 99.9645 261.947 99.8991C262.026 99.8329 262.065 99.7448 262.065 99.6349C262.065 99.5545 262.046 99.4834 262.007 99.4219C261.968 99.3603 261.913 99.312 261.841 99.277C261.77 99.242 261.685 99.2244 261.587 99.2244H261.071V99.9972ZM261.071 98.8082H261.527C261.611 98.8082 261.686 98.7936 261.751 98.7642C261.818 98.7339 261.87 98.6913 261.908 98.6364C261.946 98.5814 261.966 98.5156 261.966 98.4389C261.966 98.3338 261.929 98.2491 261.854 98.1847C261.78 98.1203 261.675 98.0881 261.538 98.0881H261.071V98.8082ZM263.1 100.5V97.5909H264.248C264.469 97.5909 264.657 97.633 264.812 97.7173C264.967 97.8007 265.086 97.9167 265.167 98.0653C265.25 98.2131 265.291 98.3835 265.291 98.5767C265.291 98.7699 265.249 98.9403 265.166 99.0881C265.083 99.2358 264.962 99.3509 264.804 99.4332C264.646 99.5156 264.456 99.5568 264.233 99.5568H263.501V99.0639H264.133C264.252 99.0639 264.349 99.0436 264.426 99.0028C264.503 98.9612 264.561 98.9039 264.599 98.831C264.638 98.7571 264.657 98.6723 264.657 98.5767C264.657 98.4801 264.638 98.3958 264.599 98.3239C264.561 98.2509 264.503 98.1946 264.426 98.1548C264.348 98.1141 264.25 98.0938 264.13 98.0938H263.716V100.5H263.1ZM266.814 100.564C266.57 100.563 266.359 100.503 266.183 100.384C266.008 100.264 265.873 100.091 265.778 99.8651C265.685 99.6387 265.638 99.3665 265.639 99.0483C265.639 98.7311 265.686 98.4607 265.78 98.2372C265.875 98.0137 266.009 97.8437 266.185 97.7273C266.361 97.6098 266.571 97.5511 266.814 97.5511C267.057 97.5511 267.267 97.6098 267.442 97.7273C267.618 97.8447 267.753 98.0152 267.848 98.2386C267.943 98.4612 267.99 98.7311 267.989 99.0483C267.989 99.3674 267.941 99.6402 267.847 99.8665C267.753 100.093 267.618 100.266 267.443 100.385C267.268 100.504 267.058 100.564 266.814 100.564ZM266.814 100.054C266.981 100.054 267.114 99.9702 267.213 99.8026C267.313 99.6349 267.362 99.3835 267.361 99.0483C267.361 98.8277 267.338 98.6439 267.293 98.4972C267.248 98.3504 267.185 98.2401 267.102 98.1662C267.021 98.0923 266.925 98.0554 266.814 98.0554C266.648 98.0554 266.516 98.1383 266.416 98.304C266.317 98.4697 266.267 98.7178 266.266 99.0483C266.266 99.2718 266.288 99.4583 266.332 99.608C266.378 99.7566 266.442 99.8684 266.524 99.9432C266.607 100.017 266.703 100.054 266.814 100.054Z" fill="black"/>
<path d="M258.183 11.5639C257.939 11.563 257.729 11.5028 257.552 11.3835C257.377 11.2642 257.242 11.0914 257.148 10.8651C257.054 10.6387 257.007 10.3665 257.008 10.0483C257.008 9.73106 257.055 9.4607 257.149 9.23722C257.244 9.01373 257.379 8.84375 257.554 8.72727C257.73 8.60985 257.94 8.55114 258.183 8.55114C258.426 8.55114 258.636 8.60985 258.811 8.72727C258.987 8.8447 259.122 9.01515 259.217 9.23864C259.312 9.46117 259.359 9.73106 259.358 10.0483C259.358 10.3674 259.31 10.6402 259.216 10.8665C259.122 11.0928 258.988 11.2656 258.812 11.3849C258.637 11.5043 258.427 11.5639 258.183 11.5639ZM258.183 11.054C258.35 11.054 258.483 10.9702 258.582 10.8026C258.682 10.6349 258.731 10.3835 258.73 10.0483C258.73 9.82765 258.707 9.64394 258.662 9.49716C258.617 9.35038 258.554 9.24006 258.471 9.16619C258.39 9.09233 258.294 9.0554 258.183 9.0554C258.017 9.0554 257.885 9.13826 257.785 9.30398C257.686 9.4697 257.636 9.7178 257.635 10.0483C257.635 10.2718 257.657 10.4583 257.702 10.608C257.747 10.7566 257.811 10.8684 257.893 10.9432C257.976 11.017 258.072 11.054 258.183 11.054ZM260.882 11.5398C260.663 11.5398 260.468 11.5043 260.298 11.4332C260.128 11.3613 259.995 11.2633 259.899 11.1392C259.802 11.0152 259.754 10.8745 259.754 10.7173C259.754 10.5961 259.781 10.4848 259.836 10.3835C259.892 10.2812 259.968 10.1965 260.063 10.1293C260.159 10.0611 260.266 10.0175 260.384 9.99858V9.97869C260.229 9.94744 260.103 9.87216 260.007 9.75284C259.91 9.63258 259.862 9.4929 259.862 9.33381C259.862 9.18324 259.906 9.04924 259.994 8.93182C260.082 8.81345 260.203 8.72064 260.356 8.65341C260.51 8.58523 260.686 8.55114 260.882 8.55114C261.078 8.55114 261.252 8.58523 261.406 8.65341C261.56 8.72159 261.681 8.81487 261.769 8.93324C261.857 9.05066 261.902 9.18419 261.903 9.33381C261.902 9.49384 261.853 9.63352 261.755 9.75284C261.658 9.87216 261.533 9.94744 261.38 9.97869V9.99858C261.497 10.0175 261.602 10.0611 261.697 10.1293C261.793 10.1965 261.868 10.2812 261.924 10.3835C261.981 10.4848 262.01 10.5961 262.011 10.7173C262.01 10.8745 261.961 11.0152 261.865 11.1392C261.768 11.2633 261.634 11.3613 261.464 11.4332C261.294 11.5043 261.1 11.5398 260.882 11.5398ZM260.882 11.0881C260.979 11.0881 261.064 11.0705 261.137 11.0355C261.21 10.9995 261.267 10.9503 261.308 10.8878C261.349 10.8243 261.37 10.7514 261.37 10.669C261.37 10.5848 261.349 10.5104 261.306 10.446C261.264 10.3807 261.206 10.3295 261.133 10.2926C261.06 10.2547 260.976 10.2358 260.882 10.2358C260.788 10.2358 260.704 10.2547 260.63 10.2926C260.556 10.3295 260.498 10.3807 260.455 10.446C260.414 10.5104 260.393 10.5848 260.393 10.669C260.393 10.7514 260.413 10.8243 260.454 10.8878C260.495 10.9503 260.552 10.9995 260.626 11.0355C260.7 11.0705 260.785 11.0881 260.882 11.0881ZM260.882 9.78835C260.963 9.78835 261.035 9.77178 261.099 9.73864C261.162 9.70549 261.212 9.65956 261.248 9.60085C261.284 9.54214 261.302 9.47443 261.302 9.39773C261.302 9.32197 261.284 9.25568 261.248 9.19886C261.212 9.1411 261.163 9.09612 261.1 9.06392C261.038 9.03078 260.965 9.0142 260.882 9.0142C260.799 9.0142 260.726 9.03078 260.663 9.06392C260.599 9.09612 260.55 9.1411 260.514 9.19886C260.479 9.25568 260.461 9.32197 260.461 9.39773C260.461 9.47443 260.479 9.54214 260.515 9.60085C260.551 9.65956 260.601 9.70549 260.664 9.73864C260.728 9.77178 260.8 9.78835 260.882 9.78835ZM262.458 11.5V8.59091H263.623C263.837 8.59091 264.015 8.62263 264.158 8.68608C264.301 8.74953 264.409 8.83759 264.481 8.95028C264.553 9.06203 264.589 9.19081 264.589 9.33665C264.589 9.45028 264.566 9.55019 264.52 9.63636C264.475 9.72159 264.412 9.79167 264.333 9.84659C264.254 9.90057 264.164 9.93892 264.063 9.96165V9.99006C264.174 9.99479 264.278 10.026 264.374 10.0838C264.472 10.1416 264.551 10.2225 264.611 10.3267C264.672 10.4299 264.702 10.553 264.702 10.696C264.702 10.8504 264.664 10.9882 264.587 11.1094C264.511 11.2296 264.399 11.3248 264.251 11.3949C264.102 11.465 263.919 11.5 263.701 11.5H262.458ZM263.073 10.9972H263.574C263.746 10.9972 263.871 10.9645 263.949 10.8991C264.028 10.8329 264.067 10.7448 264.067 10.6349C264.067 10.5545 264.048 10.4834 264.009 10.4219C263.97 10.3603 263.915 10.312 263.843 10.277C263.772 10.242 263.687 10.2244 263.589 10.2244H263.073V10.9972ZM263.073 9.80824H263.529C263.613 9.80824 263.688 9.79356 263.753 9.7642C263.82 9.7339 263.872 9.69129 263.91 9.63636C263.948 9.58144 263.968 9.51562 263.968 9.43892C263.968 9.33381 263.93 9.24905 263.856 9.18466C263.782 9.12027 263.677 9.08807 263.54 9.08807H263.073V9.80824ZM265.102 11.5V8.59091H266.25C266.471 8.59091 266.659 8.63305 266.814 8.71733C266.969 8.80066 267.088 8.91667 267.169 9.06534C267.252 9.21307 267.293 9.38352 267.293 9.5767C267.293 9.76989 267.251 9.94034 267.168 10.0881C267.084 10.2358 266.964 10.3509 266.806 10.4332C266.648 10.5156 266.458 10.5568 266.235 10.5568H265.503V10.0639H266.135C266.253 10.0639 266.351 10.0436 266.428 10.0028C266.505 9.96117 266.563 9.90388 266.601 9.83097C266.64 9.7571 266.659 9.67235 266.659 9.5767C266.659 9.48011 266.64 9.39583 266.601 9.32386C266.563 9.25095 266.505 9.1946 266.428 9.15483C266.35 9.11411 266.252 9.09375 266.132 9.09375H265.718V11.5H265.102ZM268.816 11.5639C268.572 11.563 268.361 11.5028 268.185 11.3835C268.01 11.2642 267.875 11.0914 267.78 10.8651C267.687 10.6387 267.64 10.3665 267.641 10.0483C267.641 9.73106 267.688 9.4607 267.782 9.23722C267.876 9.01373 268.011 8.84375 268.187 8.72727C268.363 8.60985 268.573 8.55114 268.816 8.55114C269.059 8.55114 269.269 8.60985 269.444 8.72727C269.62 8.8447 269.755 9.01515 269.85 9.23864C269.945 9.46117 269.992 9.73106 269.991 10.0483C269.991 10.3674 269.943 10.6402 269.849 10.8665C269.755 11.0928 269.62 11.2656 269.445 11.3849C269.27 11.5043 269.06 11.5639 268.816 11.5639ZM268.816 11.054C268.983 11.054 269.116 10.9702 269.215 10.8026C269.314 10.6349 269.364 10.3835 269.363 10.0483C269.363 9.82765 269.34 9.64394 269.295 9.49716C269.25 9.35038 269.187 9.24006 269.104 9.16619C269.023 9.09233 268.927 9.0554 268.816 9.0554C268.65 9.0554 268.518 9.13826 268.418 9.30398C268.319 9.4697 268.269 9.7178 268.268 10.0483C268.268 10.2718 268.29 10.4583 268.334 10.608C268.38 10.7566 268.444 10.8684 268.526 10.9432C268.608 11.017 268.705 11.054 268.816 11.054Z" fill="black"/>
<path d="M285.246 220.564C285.001 220.563 284.791 220.503 284.615 220.384C284.44 220.264 284.305 220.091 284.21 219.865C284.116 219.639 284.07 219.366 284.071 219.048C284.071 218.731 284.118 218.461 284.211 218.237C284.306 218.014 284.441 217.844 284.616 217.727C284.792 217.61 285.002 217.551 285.246 217.551C285.489 217.551 285.698 217.61 285.873 217.727C286.05 217.845 286.185 218.015 286.28 218.239C286.374 218.461 286.421 218.731 286.42 219.048C286.42 219.367 286.373 219.64 286.278 219.866C286.184 220.093 286.05 220.266 285.875 220.385C285.7 220.504 285.49 220.564 285.246 220.564ZM285.246 220.054C285.412 220.054 285.545 219.97 285.645 219.803C285.744 219.635 285.793 219.384 285.792 219.048C285.792 218.828 285.77 218.644 285.724 218.497C285.68 218.35 285.616 218.24 285.534 218.166C285.452 218.092 285.356 218.055 285.246 218.055C285.08 218.055 284.947 218.138 284.848 218.304C284.748 218.47 284.698 218.718 284.697 219.048C284.697 219.272 284.72 219.458 284.764 219.608C284.809 219.757 284.873 219.868 284.956 219.943C285.038 220.017 285.135 220.054 285.246 220.054ZM286.859 220.5V220.057L287.894 219.098C287.982 219.013 288.056 218.936 288.116 218.868C288.177 218.8 288.222 218.733 288.254 218.668C288.285 218.601 288.301 218.53 288.301 218.453C288.301 218.368 288.281 218.295 288.242 218.233C288.204 218.17 288.151 218.123 288.083 218.089C288.016 218.055 287.94 218.038 287.855 218.038C287.766 218.038 287.688 218.056 287.622 218.092C287.555 218.128 287.504 218.18 287.468 218.247C287.432 218.314 287.414 218.394 287.414 218.487H286.83C286.83 218.297 286.874 218.132 286.96 217.991C287.046 217.851 287.167 217.743 287.322 217.666C287.477 217.589 287.656 217.551 287.859 217.551C288.067 217.551 288.249 217.588 288.403 217.662C288.558 217.735 288.679 217.836 288.765 217.966C288.851 218.096 288.894 218.244 288.894 218.412C288.894 218.522 288.873 218.63 288.829 218.737C288.786 218.844 288.71 218.963 288.6 219.094C288.49 219.223 288.336 219.379 288.136 219.561L287.711 219.977V219.997H288.933V220.5H286.859ZM289.395 220.5V217.591H290.56C290.774 217.591 290.953 217.623 291.096 217.686C291.239 217.75 291.346 217.838 291.418 217.95C291.49 218.062 291.526 218.191 291.526 218.337C291.526 218.45 291.503 218.55 291.458 218.636C291.412 218.722 291.35 218.792 291.27 218.847C291.192 218.901 291.102 218.939 291.001 218.962V218.99C291.111 218.995 291.215 219.026 291.312 219.084C291.409 219.142 291.488 219.223 291.549 219.327C291.609 219.43 291.64 219.553 291.64 219.696C291.64 219.85 291.601 219.988 291.525 220.109C291.449 220.23 291.337 220.325 291.188 220.395C291.039 220.465 290.856 220.5 290.638 220.5H289.395ZM290.01 219.997H290.512C290.683 219.997 290.808 219.964 290.887 219.899C290.965 219.833 291.005 219.745 291.005 219.635C291.005 219.554 290.985 219.483 290.947 219.422C290.908 219.36 290.852 219.312 290.78 219.277C290.709 219.242 290.625 219.224 290.526 219.224H290.01V219.997ZM290.01 218.808H290.466C290.551 218.808 290.626 218.794 290.691 218.764C290.757 218.734 290.809 218.691 290.847 218.636C290.886 218.581 290.905 218.516 290.905 218.439C290.905 218.334 290.868 218.249 290.793 218.185C290.719 218.12 290.614 218.088 290.478 218.088H290.01V218.808ZM292.04 220.5V217.591H293.188C293.408 217.591 293.596 217.633 293.752 217.717C293.907 217.801 294.025 217.917 294.107 218.065C294.189 218.213 294.23 218.384 294.23 218.577C294.23 218.77 294.189 218.94 294.105 219.088C294.022 219.236 293.901 219.351 293.743 219.433C293.586 219.516 293.396 219.557 293.172 219.557H292.441V219.064H293.073C293.191 219.064 293.289 219.044 293.365 219.003C293.443 218.961 293.501 218.904 293.539 218.831C293.577 218.757 293.597 218.672 293.597 218.577C293.597 218.48 293.577 218.396 293.539 218.324C293.501 218.251 293.443 218.195 293.365 218.155C293.288 218.114 293.189 218.094 293.07 218.094H292.655V220.5H292.04ZM295.753 220.564C295.509 220.563 295.299 220.503 295.123 220.384C294.948 220.264 294.813 220.091 294.718 219.865C294.624 219.639 294.578 219.366 294.579 219.048C294.579 218.731 294.626 218.461 294.719 218.237C294.814 218.014 294.949 217.844 295.124 217.727C295.3 217.61 295.51 217.551 295.753 217.551C295.997 217.551 296.206 217.61 296.381 217.727C296.557 217.845 296.693 218.015 296.787 218.239C296.882 218.461 296.929 218.731 296.928 219.048C296.928 219.367 296.881 219.64 296.786 219.866C296.692 220.093 296.558 220.266 296.383 220.385C296.207 220.504 295.998 220.564 295.753 220.564ZM295.753 220.054C295.92 220.054 296.053 219.97 296.153 219.803C296.252 219.635 296.301 219.384 296.3 219.048C296.3 218.828 296.278 218.644 296.232 218.497C296.188 218.35 296.124 218.24 296.042 218.166C295.96 218.092 295.864 218.055 295.753 218.055C295.588 218.055 295.455 218.138 295.356 218.304C295.256 218.47 295.206 218.718 295.205 219.048C295.205 219.272 295.227 219.458 295.272 219.608C295.317 219.757 295.381 219.868 295.464 219.943C295.546 220.017 295.643 220.054 295.753 220.054Z" fill="black"/>
<path d="M285.216 130.564C284.972 130.563 284.762 130.503 284.586 130.384C284.41 130.264 284.275 130.091 284.181 129.865C284.087 129.639 284.041 129.366 284.042 129.048C284.042 128.731 284.088 128.461 284.182 128.237C284.277 128.014 284.412 127.844 284.587 127.727C284.763 127.61 284.973 127.551 285.216 127.551C285.46 127.551 285.669 127.61 285.844 127.727C286.02 127.845 286.156 128.015 286.25 128.239C286.345 128.461 286.392 128.731 286.391 129.048C286.391 129.367 286.344 129.64 286.249 129.866C286.155 130.093 286.021 130.266 285.846 130.385C285.67 130.504 285.461 130.564 285.216 130.564ZM285.216 130.054C285.383 130.054 285.516 129.97 285.615 129.803C285.715 129.635 285.764 129.384 285.763 129.048C285.763 128.828 285.74 128.644 285.695 128.497C285.65 128.35 285.587 128.24 285.505 128.166C285.423 128.092 285.327 128.055 285.216 128.055C285.051 128.055 284.918 128.138 284.819 128.304C284.719 128.47 284.669 128.718 284.668 129.048C284.668 129.272 284.69 129.458 284.735 129.608C284.78 129.757 284.844 129.868 284.926 129.943C285.009 130.017 285.105 130.054 285.216 130.054ZM287.892 130.54C287.691 130.54 287.512 130.503 287.355 130.429C287.199 130.355 287.075 130.253 286.983 130.124C286.891 129.994 286.843 129.845 286.839 129.678H287.436C287.443 129.79 287.49 129.882 287.578 129.952C287.666 130.022 287.771 130.057 287.892 130.057C287.989 130.057 288.074 130.036 288.148 129.993C288.223 129.949 288.281 129.889 288.322 129.812C288.365 129.735 288.386 129.646 288.386 129.545C288.386 129.443 288.365 129.353 288.321 129.276C288.278 129.198 288.219 129.137 288.143 129.094C288.068 129.05 287.981 129.028 287.884 129.027C287.798 129.027 287.715 129.045 287.635 129.08C287.555 129.115 287.493 129.162 287.449 129.223L286.902 129.125L287.04 127.591H288.818V128.094H287.547L287.472 128.822H287.489C287.54 128.75 287.617 128.691 287.72 128.643C287.823 128.596 287.939 128.572 288.067 128.572C288.242 128.572 288.398 128.614 288.536 128.696C288.673 128.778 288.781 128.892 288.861 129.036C288.94 129.179 288.98 129.343 288.979 129.53C288.98 129.726 288.934 129.9 288.842 130.053C288.751 130.204 288.624 130.323 288.46 130.411C288.297 130.497 288.108 130.54 287.892 130.54ZM289.425 130.5V127.591H290.589C290.804 127.591 290.982 127.623 291.125 127.686C291.268 127.75 291.375 127.838 291.447 127.95C291.519 128.062 291.555 128.191 291.555 128.337C291.555 128.45 291.533 128.55 291.487 128.636C291.442 128.722 291.379 128.792 291.3 128.847C291.221 128.901 291.131 128.939 291.03 128.962V128.99C291.141 128.995 291.244 129.026 291.341 129.084C291.438 129.142 291.518 129.223 291.578 129.327C291.639 129.43 291.669 129.553 291.669 129.696C291.669 129.85 291.631 129.988 291.554 130.109C291.478 130.23 291.366 130.325 291.217 130.395C291.069 130.465 290.885 130.5 290.668 130.5H289.425ZM290.04 129.997H290.541C290.713 129.997 290.838 129.964 290.916 129.899C290.995 129.833 291.034 129.745 291.034 129.635C291.034 129.554 291.015 129.483 290.976 129.422C290.937 129.36 290.882 129.312 290.81 129.277C290.739 129.242 290.654 129.224 290.555 129.224H290.04V129.997ZM290.04 128.808H290.496C290.58 128.808 290.655 128.794 290.72 128.764C290.786 128.734 290.839 128.691 290.876 128.636C290.915 128.581 290.935 128.516 290.935 128.439C290.935 128.334 290.897 128.249 290.822 128.185C290.749 128.12 290.643 128.088 290.507 128.088H290.04V128.808ZM292.069 130.5V127.591H293.217C293.438 127.591 293.626 127.633 293.781 127.717C293.936 127.801 294.055 127.917 294.136 128.065C294.218 128.213 294.26 128.384 294.26 128.577C294.26 128.77 294.218 128.94 294.135 129.088C294.051 129.236 293.931 129.351 293.772 129.433C293.615 129.516 293.425 129.557 293.201 129.557H292.47V129.064H293.102C293.22 129.064 293.318 129.044 293.395 129.003C293.472 128.961 293.53 128.904 293.568 128.831C293.607 128.757 293.626 128.672 293.626 128.577C293.626 128.48 293.607 128.396 293.568 128.324C293.53 128.251 293.472 128.195 293.395 128.155C293.317 128.114 293.218 128.094 293.099 128.094H292.684V130.5H292.069ZM295.783 130.564C295.538 130.563 295.328 130.503 295.152 130.384C294.977 130.264 294.842 130.091 294.747 129.865C294.653 129.639 294.607 129.366 294.608 129.048C294.608 128.731 294.655 128.461 294.749 128.237C294.843 128.014 294.978 127.844 295.153 127.727C295.33 127.61 295.539 127.551 295.783 127.551C296.026 127.551 296.235 127.61 296.411 127.727C296.587 127.845 296.722 128.015 296.817 128.239C296.911 128.461 296.958 128.731 296.957 129.048C296.957 129.367 296.91 129.64 296.815 129.866C296.722 130.093 296.587 130.266 296.412 130.385C296.237 130.504 296.027 130.564 295.783 130.564ZM295.783 130.054C295.949 130.054 296.082 129.97 296.182 129.803C296.281 129.635 296.33 129.384 296.33 129.048C296.33 128.828 296.307 128.644 296.261 128.497C296.217 128.35 296.153 128.24 296.071 128.166C295.99 128.092 295.893 128.055 295.783 128.055C295.617 128.055 295.484 128.138 295.385 128.304C295.286 128.47 295.235 128.718 295.234 129.048C295.234 129.272 295.257 129.458 295.301 129.608C295.347 129.757 295.411 129.868 295.493 129.943C295.575 130.017 295.672 130.054 295.783 130.054Z" fill="black"/>
<path d="M28.0112 247.564C27.7669 247.563 27.5566 247.503 27.3805 247.384C27.2053 247.264 27.0704 247.091 26.9757 246.865C26.8819 246.639 26.8355 246.366 26.8365 246.048C26.8365 245.731 26.8833 245.461 26.9771 245.237C27.0718 245.014 27.2067 244.844 27.3819 244.727C27.5581 244.61 27.7678 244.551 28.0112 244.551C28.2546 244.551 28.4638 244.61 28.639 244.727C28.8152 244.845 28.9506 245.015 29.0453 245.239C29.14 245.461 29.1868 245.731 29.1859 246.048C29.1859 246.367 29.1386 246.64 29.0439 246.866C28.9501 247.093 28.8156 247.266 28.6404 247.385C28.4653 247.504 28.2555 247.564 28.0112 247.564ZM28.0112 247.054C28.1779 247.054 28.3109 246.97 28.4103 246.803C28.5098 246.635 28.559 246.384 28.5581 246.048C28.5581 245.828 28.5353 245.644 28.4899 245.497C28.4454 245.35 28.3819 245.24 28.2995 245.166C28.2181 245.092 28.122 245.055 28.0112 245.055C27.8455 245.055 27.7129 245.138 27.6135 245.304C27.514 245.47 27.4638 245.718 27.4629 246.048C27.4629 246.272 27.4851 246.458 27.5297 246.608C27.5751 246.757 27.639 246.868 27.7214 246.943C27.8038 247.017 27.9004 247.054 28.0112 247.054ZM30.8901 244.591V247.5H30.275V245.175H30.258L29.5918 245.592V245.047L30.312 244.591H30.8901ZM31.5985 247.5V244.591H32.7633C32.9773 244.591 33.1558 244.623 33.2988 244.686C33.4418 244.75 33.5493 244.838 33.6213 244.95C33.6932 245.062 33.7292 245.191 33.7292 245.337C33.7292 245.45 33.7065 245.55 33.661 245.636C33.6156 245.722 33.5531 245.792 33.4735 245.847C33.3949 245.901 33.305 245.939 33.2037 245.962V245.99C33.3145 245.995 33.4181 246.026 33.5147 246.084C33.6123 246.142 33.6913 246.223 33.752 246.327C33.8126 246.43 33.8429 246.553 33.8429 246.696C33.8429 246.85 33.8045 246.988 33.7278 247.109C33.652 247.23 33.5398 247.325 33.3912 247.395C33.2425 247.465 33.0592 247.5 32.8414 247.5H31.5985ZM32.2136 246.997H32.715C32.8864 246.997 33.0114 246.964 33.09 246.899C33.1686 246.833 33.2079 246.745 33.2079 246.635C33.2079 246.554 33.1885 246.483 33.1497 246.422C33.1109 246.36 33.0555 246.312 32.9835 246.277C32.9125 246.242 32.8277 246.224 32.7292 246.224H32.2136V246.997ZM32.2136 245.808H32.6696C32.7538 245.808 32.8287 245.794 32.894 245.764C32.9603 245.734 33.0124 245.691 33.0502 245.636C33.0891 245.581 33.1085 245.516 33.1085 245.439C33.1085 245.334 33.0711 245.249 32.9963 245.185C32.9224 245.12 32.8173 245.088 32.6809 245.088H32.2136V245.808ZM35.8212 245.428C35.8098 245.313 35.7611 245.224 35.6749 245.161C35.5887 245.097 35.4718 245.065 35.324 245.065C35.2237 245.065 35.1389 245.08 35.0698 245.108C35.0007 245.135 34.9476 245.174 34.9107 245.223C34.8747 245.272 34.8567 245.328 34.8567 245.391C34.8548 245.443 34.8657 245.488 34.8894 245.527C34.914 245.566 34.9476 245.599 34.9902 245.628C35.0328 245.655 35.0821 245.679 35.138 245.7C35.1938 245.72 35.2535 245.737 35.3169 245.751L35.5783 245.814C35.7052 245.842 35.8217 245.88 35.9277 245.928C36.0338 245.975 36.1257 246.033 36.2033 246.102C36.281 246.171 36.3411 246.253 36.3837 246.347C36.4273 246.44 36.4495 246.548 36.4505 246.669C36.4495 246.847 36.4041 247.001 36.3141 247.132C36.2251 247.262 36.0963 247.363 35.9277 247.435C35.7601 247.506 35.5579 247.541 35.3212 247.541C35.0864 247.541 34.8818 247.505 34.7076 247.433C34.5343 247.361 34.3989 247.255 34.3013 247.114C34.2047 246.972 34.1541 246.796 34.1493 246.587H34.7445C34.7511 246.684 34.7791 246.766 34.8283 246.831C34.8785 246.895 34.9453 246.944 35.0286 246.977C35.1129 247.009 35.208 247.026 35.3141 247.026C35.4183 247.026 35.5087 247.01 35.5854 246.98C35.6631 246.95 35.7232 246.908 35.7658 246.854C35.8084 246.8 35.8297 246.738 35.8297 246.668C35.8297 246.602 35.8103 246.547 35.7715 246.503C35.7336 246.458 35.6777 246.42 35.6039 246.389C35.531 246.358 35.4415 246.33 35.3354 246.304L35.0186 246.224C34.7734 246.165 34.5797 246.071 34.4377 245.945C34.2956 245.818 34.2251 245.647 34.226 245.432C34.2251 245.256 34.272 245.102 34.3667 244.97C34.4623 244.839 34.5935 244.736 34.7601 244.662C34.9268 244.588 35.1162 244.551 35.3283 244.551C35.5442 244.551 35.7327 244.588 35.8936 244.662C36.0556 244.736 36.1815 244.839 36.2715 244.97C36.3614 245.102 36.4078 245.254 36.4107 245.428H35.8212ZM37.9877 247.564C37.7434 247.563 37.5332 247.503 37.3571 247.384C37.1819 247.264 37.0469 247.091 36.9522 246.865C36.8585 246.639 36.8121 246.366 36.813 246.048C36.813 245.731 36.8599 245.461 36.9537 245.237C37.0484 245.014 37.1833 244.844 37.3585 244.727C37.5346 244.61 37.7444 244.551 37.9877 244.551C38.2311 244.551 38.4404 244.61 38.6156 244.727C38.7917 244.845 38.9271 245.015 39.0218 245.239C39.1165 245.461 39.1634 245.731 39.1625 246.048C39.1625 246.367 39.1151 246.64 39.0204 246.866C38.9267 247.093 38.7922 247.266 38.617 247.385C38.4418 247.504 38.2321 247.564 37.9877 247.564ZM37.9877 247.054C38.1544 247.054 38.2875 246.97 38.3869 246.803C38.4863 246.635 38.5356 246.384 38.5346 246.048C38.5346 245.828 38.5119 245.644 38.4664 245.497C38.4219 245.35 38.3585 245.24 38.2761 245.166C38.1947 245.092 38.0985 245.055 37.9877 245.055C37.822 245.055 37.6895 245.138 37.59 245.304C37.4906 245.47 37.4404 245.718 37.4395 246.048C37.4395 246.272 37.4617 246.458 37.5062 246.608C37.5517 246.757 37.6156 246.868 37.698 246.943C37.7804 247.017 37.877 247.054 37.9877 247.054Z" fill="black"/>
<path d="M27.1342 157.564C26.8899 157.563 26.6797 157.503 26.5036 157.384C26.3284 157.264 26.1934 157.091 26.0987 156.865C26.005 156.639 25.9586 156.366 25.9595 156.048C25.9595 155.731 26.0064 155.461 26.1001 155.237C26.1948 155.014 26.3298 154.844 26.505 154.727C26.6811 154.61 26.8909 154.551 27.1342 154.551C27.3776 154.551 27.5869 154.61 27.7621 154.727C27.9382 154.845 28.0736 155.015 28.1683 155.239C28.263 155.461 28.3099 155.731 28.3089 156.048C28.3089 156.367 28.2616 156.64 28.1669 156.866C28.0732 157.093 27.9387 157.266 27.7635 157.385C27.5883 157.504 27.3786 157.564 27.1342 157.564ZM27.1342 157.054C27.3009 157.054 27.4339 156.97 27.5334 156.803C27.6328 156.635 27.6821 156.384 27.6811 156.048C27.6811 155.828 27.6584 155.644 27.6129 155.497C27.5684 155.35 27.505 155.24 27.4226 155.166C27.3411 155.092 27.245 155.055 27.1342 155.055C26.9685 155.055 26.8359 155.138 26.7365 155.304C26.6371 155.47 26.5869 155.718 26.5859 156.048C26.5859 156.272 26.6082 156.458 26.6527 156.608C26.6982 156.757 26.7621 156.868 26.8445 156.943C26.9268 157.017 27.0234 157.054 27.1342 157.054ZM28.7035 156.989V156.504L29.918 154.591H30.3356V155.261H30.0884L29.3228 156.473V156.496H31.0487V156.989H28.7035ZM30.0998 157.5V156.841L30.1112 156.626V154.591H30.6879V157.5H30.0998ZM31.4755 157.5V154.591H32.6403C32.8543 154.591 33.0328 154.623 33.1758 154.686C33.3188 154.75 33.4263 154.838 33.4982 154.95C33.5702 155.062 33.6062 155.191 33.6062 155.337C33.6062 155.45 33.5835 155.55 33.538 155.636C33.4925 155.722 33.43 155.792 33.3505 155.847C33.2719 155.901 33.1819 155.939 33.0806 155.962V155.99C33.1914 155.995 33.2951 156.026 33.3917 156.084C33.4892 156.142 33.5683 156.223 33.6289 156.327C33.6895 156.43 33.7198 156.553 33.7198 156.696C33.7198 156.85 33.6815 156.988 33.6048 157.109C33.529 157.23 33.4168 157.325 33.2681 157.395C33.1194 157.465 32.9362 157.5 32.7184 157.5H31.4755ZM32.0906 156.997H32.592C32.7634 156.997 32.8884 156.964 32.967 156.899C33.0456 156.833 33.0849 156.745 33.0849 156.635C33.0849 156.554 33.0655 156.483 33.0266 156.422C32.9878 156.36 32.9324 156.312 32.8604 156.277C32.7894 156.242 32.7047 156.224 32.6062 156.224H32.0906V156.997ZM32.0906 155.808H32.5465C32.6308 155.808 32.7056 155.794 32.771 155.764C32.8372 155.734 32.8893 155.691 32.9272 155.636C32.966 155.581 32.9854 155.516 32.9854 155.439C32.9854 155.334 32.948 155.249 32.8732 155.185C32.7994 155.12 32.6942 155.088 32.5579 155.088H32.0906V155.808ZM35.6982 155.428C35.6868 155.313 35.638 155.224 35.5518 155.161C35.4657 155.097 35.3487 155.065 35.201 155.065C35.1006 155.065 35.0159 155.08 34.9467 155.108C34.8776 155.135 34.8246 155.174 34.7876 155.223C34.7517 155.272 34.7337 155.328 34.7337 155.391C34.7318 155.443 34.7427 155.488 34.7663 155.527C34.791 155.566 34.8246 155.599 34.8672 155.628C34.9098 155.655 34.959 155.679 35.0149 155.7C35.0708 155.72 35.1304 155.737 35.1939 155.751L35.4553 155.814C35.5821 155.842 35.6986 155.88 35.8047 155.928C35.9107 155.975 36.0026 156.033 36.0803 156.102C36.1579 156.171 36.218 156.253 36.2607 156.347C36.3042 156.44 36.3265 156.548 36.3274 156.669C36.3265 156.847 36.281 157.001 36.1911 157.132C36.102 157.262 35.9732 157.363 35.8047 157.435C35.6371 157.506 35.4349 157.541 35.1982 157.541C34.9633 157.541 34.7588 157.505 34.5845 157.433C34.4112 157.361 34.2758 157.255 34.1783 157.114C34.0817 156.972 34.031 156.796 34.0263 156.587H34.6214C34.6281 156.684 34.656 156.766 34.7053 156.831C34.7554 156.895 34.8222 156.944 34.9055 156.977C34.9898 157.009 35.085 157.026 35.1911 157.026C35.2952 157.026 35.3857 157.01 35.4624 156.98C35.54 156.95 35.6001 156.908 35.6428 156.854C35.6854 156.8 35.7067 156.738 35.7067 156.668C35.7067 156.602 35.6873 156.547 35.6484 156.503C35.6106 156.458 35.5547 156.42 35.4808 156.389C35.4079 156.358 35.3184 156.33 35.2124 156.304L34.8956 156.224C34.6503 156.165 34.4567 156.071 34.3146 155.945C34.1726 155.818 34.102 155.647 34.103 155.432C34.102 155.256 34.1489 155.102 34.2436 154.97C34.3393 154.839 34.4704 154.736 34.6371 154.662C34.8037 154.588 34.9931 154.551 35.2053 154.551C35.4212 154.551 35.6096 154.588 35.7706 154.662C35.9325 154.736 36.0585 154.839 36.1484 154.97C36.2384 155.102 36.2848 155.254 36.2876 155.428H35.6982ZM37.8647 157.564C37.6204 157.563 37.4102 157.503 37.234 157.384C37.0588 157.264 36.9239 157.091 36.8292 156.865C36.7354 156.639 36.689 156.366 36.69 156.048C36.69 155.731 36.7369 155.461 36.8306 155.237C36.9253 155.014 37.0603 154.844 37.2354 154.727C37.4116 154.61 37.6213 154.551 37.8647 154.551C38.1081 154.551 38.3174 154.61 38.4925 154.727C38.6687 154.845 38.8041 155.015 38.8988 155.239C38.9935 155.461 39.0404 155.731 39.0394 156.048C39.0394 156.367 38.9921 156.64 38.8974 156.866C38.8036 157.093 38.6692 157.266 38.494 157.385C38.3188 157.504 38.109 157.564 37.8647 157.564ZM37.8647 157.054C38.0314 157.054 38.1644 156.97 38.2638 156.803C38.3633 156.635 38.4125 156.384 38.4116 156.048C38.4116 155.828 38.3888 155.644 38.3434 155.497C38.2989 155.35 38.2354 155.24 38.1531 155.166C38.0716 155.092 37.9755 155.055 37.8647 155.055C37.699 155.055 37.5664 155.138 37.467 155.304C37.3675 155.47 37.3174 155.718 37.3164 156.048C37.3164 156.272 37.3387 156.458 37.3832 156.608C37.4286 156.757 37.4925 156.868 37.5749 156.943C37.6573 157.017 37.7539 157.054 37.8647 157.054Z" fill="black"/>
<path d="M29.3393 68.5639C29.095 68.563 28.8848 68.5028 28.7086 68.3835C28.5334 68.2642 28.3985 68.0914 28.3038 67.8651C28.21 67.6387 28.1636 67.3665 28.1646 67.0483C28.1646 66.7311 28.2115 66.4607 28.3052 66.2372C28.3999 66.0137 28.5349 65.8437 28.71 65.7273C28.8862 65.6098 29.0959 65.5511 29.3393 65.5511C29.5827 65.5511 29.792 65.6098 29.9672 65.7273C30.1433 65.8447 30.2787 66.0152 30.3734 66.2386C30.4681 66.4612 30.515 66.7311 30.514 67.0483C30.514 67.3674 30.4667 67.6402 30.372 67.8665C30.2782 68.0928 30.1438 68.2656 29.9686 68.3849C29.7934 68.5043 29.5836 68.5639 29.3393 68.5639ZM29.3393 68.054C29.506 68.054 29.639 67.9702 29.7385 67.8026C29.8379 67.6349 29.8871 67.3835 29.8862 67.0483C29.8862 66.8277 29.8635 66.6439 29.818 66.4972C29.7735 66.3504 29.71 66.2401 29.6277 66.1662C29.5462 66.0923 29.4501 66.0554 29.3393 66.0554C29.1736 66.0554 29.041 66.1383 28.9416 66.304C28.8422 66.4697 28.792 66.7178 28.791 67.0483C28.791 67.2718 28.8133 67.4583 28.8578 67.608C28.9032 67.7566 28.9672 67.8684 29.0495 67.9432C29.1319 68.017 29.2285 68.054 29.3393 68.054ZM30.9895 68.5L32.1955 66.1136V66.0938H30.7907V65.5909H32.8319V66.1009L31.6245 68.5H30.9895ZM33.2704 68.5V65.5909H34.4352C34.6492 65.5909 34.8277 65.6226 34.9707 65.6861C35.1137 65.7495 35.2212 65.8376 35.2931 65.9503C35.3651 66.062 35.4011 66.1908 35.4011 66.3366C35.4011 66.4503 35.3784 66.5502 35.3329 66.6364C35.2875 66.7216 35.225 66.7917 35.1454 66.8466C35.0668 66.9006 34.9769 66.9389 34.8755 66.9616V66.9901C34.9863 66.9948 35.09 67.026 35.1866 67.0838C35.2842 67.1416 35.3632 67.2225 35.4238 67.3267C35.4844 67.4299 35.5147 67.553 35.5147 67.696C35.5147 67.8504 35.4764 67.9882 35.3997 68.1094C35.3239 68.2296 35.2117 68.3248 35.063 68.3949C34.9144 68.465 34.7311 68.5 34.5133 68.5H33.2704ZM33.8855 67.9972H34.3869C34.5583 67.9972 34.6833 67.9645 34.7619 67.8991C34.8405 67.8329 34.8798 67.7448 34.8798 67.6349C34.8798 67.5545 34.8604 67.4834 34.8216 67.4219C34.7827 67.3603 34.7273 67.312 34.6554 67.277C34.5843 67.242 34.4996 67.2244 34.4011 67.2244H33.8855V67.9972ZM33.8855 66.8082H34.3414C34.4257 66.8082 34.5005 66.7936 34.5659 66.7642C34.6322 66.7339 34.6842 66.6913 34.7221 66.6364C34.7609 66.5814 34.7804 66.5156 34.7804 66.4389C34.7804 66.3338 34.743 66.2491 34.6681 66.1847C34.5943 66.1203 34.4892 66.0881 34.3528 66.0881H33.8855V66.8082ZM37.4931 66.4276C37.4817 66.313 37.4329 66.224 37.3468 66.1605C37.2606 66.0971 37.1436 66.0653 36.9959 66.0653C36.8955 66.0653 36.8108 66.0795 36.7417 66.108C36.6725 66.1354 36.6195 66.1738 36.5826 66.223C36.5466 66.2723 36.5286 66.3281 36.5286 66.3906C36.5267 66.4427 36.5376 66.4882 36.5613 66.527C36.5859 66.5658 36.6195 66.5994 36.6621 66.6278C36.7047 66.6553 36.754 66.6795 36.8098 66.7003C36.8657 66.7202 36.9254 66.7372 36.9888 66.7514L37.2502 66.8139C37.3771 66.8423 37.4935 66.8802 37.5996 66.9276C37.7057 66.9749 37.7975 67.0331 37.8752 67.1023C37.9528 67.1714 38.013 67.2528 38.0556 67.3466C38.0991 67.4403 38.1214 67.5478 38.1223 67.669C38.1214 67.8471 38.0759 68.0014 37.986 68.1321C37.897 68.2618 37.7682 68.3627 37.5996 68.4347C37.432 68.5057 37.2298 68.5412 36.9931 68.5412C36.7582 68.5412 36.5537 68.5052 36.3794 68.4332C36.2061 68.3613 36.0707 68.2547 35.9732 68.1136C35.8766 67.9716 35.8259 67.7959 35.8212 67.5866H36.4164C36.423 67.6842 36.4509 67.7656 36.5002 67.831C36.5504 67.8954 36.6171 67.9441 36.7005 67.9773C36.7847 68.0095 36.8799 68.0256 36.986 68.0256C37.0901 68.0256 37.1806 68.0104 37.2573 67.9801C37.3349 67.9498 37.3951 67.9077 37.4377 67.8537C37.4803 67.7997 37.5016 67.7377 37.5016 67.6676C37.5016 67.6023 37.4822 67.5473 37.4434 67.5028C37.4055 67.4583 37.3496 67.4205 37.2757 67.3892C37.2028 67.358 37.1133 67.3295 37.0073 67.304L36.6905 67.2244C36.4453 67.1648 36.2516 67.0715 36.1096 66.9446C35.9675 66.8177 35.897 66.6468 35.8979 66.4318C35.897 66.2557 35.9438 66.1018 36.0385 65.9702C36.1342 65.8385 36.2653 65.7358 36.432 65.6619C36.5987 65.5881 36.7881 65.5511 37.0002 65.5511C37.2161 65.5511 37.4045 65.5881 37.5655 65.6619C37.7275 65.7358 37.8534 65.8385 37.9434 65.9702C38.0333 66.1018 38.0797 66.2543 38.0826 66.4276H37.4931ZM39.6596 68.5639C39.4153 68.563 39.2051 68.5028 39.0289 68.3835C38.8538 68.2642 38.7188 68.0914 38.6241 67.8651C38.5304 67.6387 38.484 67.3665 38.4849 67.0483C38.4849 66.7311 38.5318 66.4607 38.6255 66.2372C38.7202 66.0137 38.8552 65.8437 39.0304 65.7273C39.2065 65.6098 39.4163 65.5511 39.6596 65.5511C39.903 65.5511 40.1123 65.6098 40.2875 65.7273C40.4636 65.8447 40.599 66.0152 40.6937 66.2386C40.7884 66.4612 40.8353 66.7311 40.8343 67.0483C40.8343 67.3674 40.787 67.6402 40.6923 67.8665C40.5985 68.0928 40.4641 68.2656 40.2889 68.3849C40.1137 68.5043 39.9039 68.5639 39.6596 68.5639ZM39.6596 68.054C39.8263 68.054 39.9593 67.9702 40.0588 67.8026C40.1582 67.6349 40.2074 67.3835 40.2065 67.0483C40.2065 66.8277 40.1838 66.6439 40.1383 66.4972C40.0938 66.3504 40.0304 66.2401 39.948 66.1662C39.8665 66.0923 39.7704 66.0554 39.6596 66.0554C39.4939 66.0554 39.3613 66.1383 39.2619 66.304C39.1625 66.4697 39.1123 66.7178 39.1113 67.0483C39.1113 67.2718 39.1336 67.4583 39.1781 67.608C39.2235 67.7566 39.2875 67.8684 39.3699 67.9432C39.4522 68.017 39.5488 68.054 39.6596 68.054Z" fill="black"/>
<path d="M26.1713 191.564C25.927 191.563 25.7168 191.503 25.5407 191.384C25.3655 191.264 25.2305 191.091 25.1358 190.865C25.0421 190.639 24.9957 190.366 24.9966 190.048C24.9966 189.731 25.0435 189.461 25.1373 189.237C25.2319 189.014 25.3669 188.844 25.5421 188.727C25.7182 188.61 25.928 188.551 26.1713 188.551C26.4147 188.551 26.624 188.61 26.7992 188.727C26.9753 188.845 27.1107 189.015 27.2054 189.239C27.3001 189.461 27.347 189.731 27.3461 190.048C27.3461 190.367 27.2987 190.64 27.204 190.866C27.1103 191.093 26.9758 191.266 26.8006 191.385C26.6254 191.504 26.4157 191.564 26.1713 191.564ZM26.1713 191.054C26.338 191.054 26.4711 190.97 26.5705 190.803C26.6699 190.635 26.7192 190.384 26.7182 190.048C26.7182 189.828 26.6955 189.644 26.65 189.497C26.6055 189.35 26.5421 189.24 26.4597 189.166C26.3783 189.092 26.2821 189.055 26.1713 189.055C26.0056 189.055 25.873 189.138 25.7736 189.304C25.6742 189.47 25.624 189.718 25.623 190.048C25.623 190.272 25.6453 190.458 25.6898 190.608C25.7353 190.757 25.7992 190.868 25.8816 190.943C25.964 191.017 26.0605 191.054 26.1713 191.054ZM28.8599 191.54C28.6478 191.54 28.4589 191.503 28.2931 191.43C28.1284 191.357 27.9982 191.255 27.9025 191.126C27.8078 190.997 27.7591 190.847 27.7562 190.678H28.3755C28.3793 190.749 28.4025 190.811 28.4451 190.865C28.4887 190.918 28.5465 190.959 28.6184 190.989C28.6904 191.018 28.7714 191.033 28.8613 191.033C28.9551 191.033 29.0379 191.016 29.1099 190.983C29.1819 190.95 29.2382 190.904 29.2789 190.845C29.3197 190.786 29.34 190.719 29.34 190.642C29.34 190.564 29.3182 190.496 29.2747 190.436C29.2321 190.375 29.1705 190.328 29.09 190.294C29.0105 190.26 28.9158 190.243 28.8059 190.243H28.5346V189.791H28.8059C28.8987 189.791 28.9806 189.775 29.0517 189.743C29.1236 189.711 29.1795 189.666 29.2193 189.609C29.2591 189.552 29.2789 189.484 29.2789 189.408C29.2789 189.335 29.2614 189.271 29.2264 189.216C29.1923 189.16 29.144 189.116 29.0815 189.085C29.0199 189.054 28.948 189.038 28.8656 189.038C28.7823 189.038 28.706 189.054 28.6369 189.084C28.5678 189.113 28.5124 189.155 28.4707 189.21C28.429 189.265 28.4068 189.33 28.4039 189.403H27.8145C27.8173 189.236 27.8651 189.088 27.9579 188.96C28.0507 188.832 28.1757 188.732 28.3329 188.661C28.4911 188.588 28.6696 188.551 28.8684 188.551C29.0692 188.551 29.2449 188.588 29.3954 188.661C29.546 188.733 29.6629 188.832 29.7463 188.956C29.8306 189.079 29.8722 189.217 29.8713 189.371C29.8722 189.534 29.8216 189.67 29.7193 189.778C29.618 189.887 29.4859 189.956 29.323 189.986V190.009C29.537 190.036 29.6999 190.11 29.8116 190.232C29.9243 190.352 29.9802 190.502 29.9792 190.683C29.9802 190.849 29.9324 190.996 29.8358 191.125C29.7401 191.254 29.608 191.355 29.4395 191.429C29.2709 191.503 29.0777 191.54 28.8599 191.54ZM30.4384 191.5V188.591H31.6032C31.8172 188.591 31.9957 188.623 32.1387 188.686C32.2817 188.75 32.3891 188.838 32.4611 188.95C32.5331 189.062 32.5691 189.191 32.5691 189.337C32.5691 189.45 32.5463 189.55 32.5009 189.636C32.4554 189.722 32.3929 189.792 32.3134 189.847C32.2348 189.901 32.1448 189.939 32.0435 189.962V189.99C32.1543 189.995 32.258 190.026 32.3546 190.084C32.4521 190.142 32.5312 190.223 32.5918 190.327C32.6524 190.43 32.6827 190.553 32.6827 190.696C32.6827 190.85 32.6444 190.988 32.5676 191.109C32.4919 191.23 32.3797 191.325 32.231 191.395C32.0823 191.465 31.8991 191.5 31.6813 191.5H30.4384ZM31.0534 190.997H31.5549C31.7263 190.997 31.8513 190.964 31.9299 190.899C32.0085 190.833 32.0478 190.745 32.0478 190.635C32.0478 190.554 32.0283 190.483 31.9895 190.422C31.9507 190.36 31.8953 190.312 31.8233 190.277C31.7523 190.242 31.6676 190.224 31.5691 190.224H31.0534V190.997ZM31.0534 189.808H31.5094C31.5937 189.808 31.6685 189.794 31.7338 189.764C31.8001 189.734 31.8522 189.691 31.8901 189.636C31.9289 189.581 31.9483 189.516 31.9483 189.439C31.9483 189.334 31.9109 189.249 31.8361 189.185C31.7623 189.12 31.6571 189.088 31.5208 189.088H31.0534V189.808ZM34.661 189.428C34.6497 189.313 34.6009 189.224 34.5147 189.161C34.4286 189.097 34.3116 189.065 34.1639 189.065C34.0635 189.065 33.9788 189.08 33.9096 189.108C33.8405 189.135 33.7875 189.174 33.7505 189.223C33.7145 189.272 33.6966 189.328 33.6966 189.391C33.6947 189.443 33.7056 189.488 33.7292 189.527C33.7538 189.566 33.7875 189.599 33.8301 189.628C33.8727 189.655 33.9219 189.679 33.9778 189.7C34.0337 189.72 34.0933 189.737 34.1568 189.751L34.4181 189.814C34.545 189.842 34.6615 189.88 34.7676 189.928C34.8736 189.975 34.9655 190.033 35.0431 190.102C35.1208 190.171 35.1809 190.253 35.2235 190.347C35.2671 190.44 35.2894 190.548 35.2903 190.669C35.2894 190.847 35.2439 191.001 35.1539 191.132C35.0649 191.262 34.9361 191.363 34.7676 191.435C34.6 191.506 34.3978 191.541 34.161 191.541C33.9262 191.541 33.7217 191.505 33.5474 191.433C33.3741 191.361 33.2387 191.255 33.1412 191.114C33.0446 190.972 32.9939 190.796 32.9892 190.587H33.5843C33.591 190.684 33.6189 190.766 33.6681 190.831C33.7183 190.895 33.7851 190.944 33.8684 190.977C33.9527 191.009 34.0479 191.026 34.1539 191.026C34.2581 191.026 34.3485 191.01 34.4252 190.98C34.5029 190.95 34.563 190.908 34.6056 190.854C34.6483 190.8 34.6696 190.738 34.6696 190.668C34.6696 190.602 34.6502 190.547 34.6113 190.503C34.5734 190.458 34.5176 190.42 34.4437 190.389C34.3708 190.358 34.2813 190.33 34.1752 190.304L33.8585 190.224C33.6132 190.165 33.4196 190.071 33.2775 189.945C33.1355 189.818 33.0649 189.647 33.0659 189.432C33.0649 189.256 33.1118 189.102 33.2065 188.97C33.3021 188.839 33.4333 188.736 33.6 188.662C33.7666 188.588 33.956 188.551 34.1681 188.551C34.3841 188.551 34.5725 188.588 34.7335 188.662C34.8954 188.736 35.0214 188.839 35.1113 188.97C35.2013 189.102 35.2477 189.254 35.2505 189.428H34.661ZM36.8276 191.564C36.5833 191.563 36.373 191.503 36.1969 191.384C36.0217 191.264 35.8868 191.091 35.7921 190.865C35.6983 190.639 35.6519 190.366 35.6529 190.048C35.6529 189.731 35.6998 189.461 35.7935 189.237C35.8882 189.014 36.0231 188.844 36.1983 188.727C36.3745 188.61 36.5842 188.551 36.8276 188.551C37.071 188.551 37.2802 188.61 37.4554 188.727C37.6316 188.845 37.767 189.015 37.8617 189.239C37.9564 189.461 38.0033 189.731 38.0023 190.048C38.0023 190.367 37.955 190.64 37.8603 190.866C37.7665 191.093 37.632 191.266 37.4569 191.385C37.2817 191.504 37.0719 191.564 36.8276 191.564ZM36.8276 191.054C36.9943 191.054 37.1273 190.97 37.2267 190.803C37.3262 190.635 37.3754 190.384 37.3745 190.048C37.3745 189.828 37.3517 189.644 37.3063 189.497C37.2618 189.35 37.1983 189.24 37.1159 189.166C37.0345 189.092 36.9384 189.055 36.8276 189.055C36.6619 189.055 36.5293 189.138 36.4299 189.304C36.3304 189.47 36.2802 189.718 36.2793 190.048C36.2793 190.272 36.3016 190.458 36.3461 190.608C36.3915 190.757 36.4554 190.868 36.5378 190.943C36.6202 191.017 36.7168 191.054 36.8276 191.054Z" fill="black"/>
<path d="M28.1694 100.564C27.9251 100.563 27.7148 100.503 27.5387 100.384C27.3635 100.264 27.2286 100.091 27.1339 99.8651C27.0401 99.6387 26.9937 99.3665 26.9947 99.0483C26.9947 98.7311 27.0415 98.4607 27.1353 98.2372C27.23 98.0137 27.3649 97.8437 27.5401 97.7273C27.7163 97.6098 27.926 97.5511 28.1694 97.5511C28.4128 97.5511 28.622 97.6098 28.7972 97.7273C28.9734 97.8447 29.1088 98.0152 29.2035 98.2386C29.2982 98.4612 29.3451 98.7311 29.3441 99.0483C29.3441 99.3674 29.2968 99.6402 29.2021 99.8665C29.1083 100.093 28.9738 100.266 28.7987 100.385C28.6235 100.504 28.4137 100.564 28.1694 100.564ZM28.1694 100.054C28.3361 100.054 28.4691 99.9702 28.5685 99.8026C28.668 99.6349 28.7172 99.3835 28.7163 99.0483C28.7163 98.8277 28.6935 98.6439 28.6481 98.4972C28.6036 98.3504 28.5401 98.2401 28.4577 98.1662C28.3763 98.0923 28.2802 98.0554 28.1694 98.0554C28.0037 98.0554 27.8711 98.1383 27.7717 98.304C27.6722 98.4697 27.622 98.7178 27.6211 99.0483C27.6211 99.2718 27.6433 99.4583 27.6879 99.608C27.7333 99.7566 27.7972 99.8684 27.8796 99.9432C27.962 100.017 28.0586 100.054 28.1694 100.054ZM30.8991 100.54C30.7495 100.539 30.6051 100.514 30.4659 100.464C30.3277 100.415 30.2036 100.335 30.0938 100.224C29.9839 100.114 29.8968 99.9669 29.8324 99.7841C29.7689 99.6013 29.7372 99.3769 29.7372 99.1108C29.7382 98.8665 29.7661 98.6482 29.821 98.456C29.8769 98.2628 29.9564 98.099 30.0597 97.9645C30.1638 97.83 30.2884 97.7277 30.4332 97.6577C30.5781 97.5866 30.7405 97.5511 30.9205 97.5511C31.1146 97.5511 31.286 97.589 31.4347 97.6648C31.5833 97.7396 31.7027 97.8414 31.7926 97.9702C31.8835 98.099 31.9384 98.2434 31.9574 98.4034H31.3509C31.3272 98.3021 31.2775 98.2225 31.2017 98.1648C31.1259 98.107 31.0322 98.0781 30.9205 98.0781C30.7311 98.0781 30.5871 98.1605 30.4886 98.3253C30.3911 98.4901 30.3414 98.714 30.3395 98.9972H30.3594C30.4029 98.911 30.4616 98.8376 30.5355 98.777C30.6103 98.7154 30.6951 98.6686 30.7898 98.6364C30.8854 98.6032 30.9863 98.5866 31.0923 98.5866C31.2647 98.5866 31.4181 98.6274 31.5526 98.7088C31.687 98.7893 31.7931 98.9001 31.8707 99.0412C31.9484 99.1823 31.9872 99.3437 31.9872 99.5256C31.9872 99.7225 31.9413 99.8977 31.8494 100.051C31.7585 100.205 31.6312 100.325 31.4673 100.412C31.3045 100.498 31.1151 100.541 30.8991 100.54ZM30.8963 100.057C30.991 100.057 31.0758 100.034 31.1506 99.9886C31.2254 99.9432 31.2841 99.8816 31.3267 99.804C31.3693 99.7263 31.3906 99.6392 31.3906 99.5426C31.3906 99.446 31.3693 99.3594 31.3267 99.2827C31.285 99.206 31.2273 99.1449 31.1534 99.0994C31.0795 99.054 30.9953 99.0312 30.9006 99.0312C30.8295 99.0312 30.7637 99.0445 30.7031 99.071C30.6435 99.0975 30.5909 99.1345 30.5455 99.1818C30.5009 99.2292 30.4659 99.2841 30.4403 99.3466C30.4148 99.4081 30.402 99.474 30.402 99.544C30.402 99.6378 30.4233 99.7235 30.4659 99.8011C30.5095 99.8788 30.5682 99.9408 30.642 99.9872C30.7169 100.034 30.8016 100.057 30.8963 100.057ZM32.4403 100.5V97.5909H33.6051C33.8191 97.5909 33.9976 97.6226 34.1406 97.6861C34.2836 97.7495 34.3911 97.8376 34.4631 97.9503C34.535 98.062 34.571 98.1908 34.571 98.3366C34.571 98.4503 34.5483 98.5502 34.5028 98.6364C34.4574 98.7216 34.3949 98.7917 34.3153 98.8466C34.2367 98.9006 34.1468 98.9389 34.0455 98.9616V98.9901C34.1563 98.9948 34.2599 99.026 34.3565 99.0838C34.4541 99.1416 34.5331 99.2225 34.5938 99.3267C34.6544 99.4299 34.6847 99.553 34.6847 99.696C34.6847 99.8504 34.6463 99.9882 34.5696 100.109C34.4938 100.23 34.3816 100.325 34.233 100.395C34.0843 100.465 33.901 100.5 33.6832 100.5H32.4403ZM33.0554 99.9972H33.5568C33.7282 99.9972 33.8532 99.9645 33.9318 99.8991C34.0104 99.8329 34.0497 99.7448 34.0497 99.6349C34.0497 99.5545 34.0303 99.4834 33.9915 99.4219C33.9527 99.3603 33.8973 99.312 33.8253 99.277C33.7543 99.242 33.6695 99.2244 33.571 99.2244H33.0554V99.9972ZM33.0554 98.8082H33.5114C33.5956 98.8082 33.6705 98.7936 33.7358 98.7642C33.8021 98.7339 33.8542 98.6913 33.892 98.6364C33.9309 98.5814 33.9503 98.5156 33.9503 98.4389C33.9503 98.3338 33.9129 98.2491 33.8381 98.1847C33.7642 98.1203 33.6591 98.0881 33.5227 98.0881H33.0554V98.8082ZM36.663 98.4276C36.6516 98.313 36.6029 98.224 36.5167 98.1605C36.4305 98.0971 36.3136 98.0653 36.1658 98.0653C36.0655 98.0653 35.9807 98.0795 35.9116 98.108C35.8424 98.1354 35.7894 98.1738 35.7525 98.223C35.7165 98.2723 35.6985 98.3281 35.6985 98.3906C35.6966 98.4427 35.7075 98.4882 35.7312 98.527C35.7558 98.5658 35.7894 98.5994 35.832 98.6278C35.8746 98.6553 35.9239 98.6795 35.9798 98.7003C36.0356 98.7202 36.0953 98.7372 36.1587 98.7514L36.4201 98.8139C36.547 98.8423 36.6635 98.8802 36.7695 98.9276C36.8756 98.9749 36.9674 99.0331 37.0451 99.1023C37.1228 99.1714 37.1829 99.2528 37.2255 99.3466C37.2691 99.4403 37.2913 99.5478 37.2923 99.669C37.2913 99.8471 37.2459 100.001 37.1559 100.132C37.0669 100.262 36.9381 100.363 36.7695 100.435C36.6019 100.506 36.3997 100.541 36.163 100.541C35.9281 100.541 35.7236 100.505 35.5494 100.433C35.3761 100.361 35.2406 100.255 35.1431 100.114C35.0465 99.9716 34.9959 99.7959 34.9911 99.5866H35.5863C35.5929 99.6842 35.6209 99.7656 35.6701 99.831C35.7203 99.8954 35.7871 99.9441 35.8704 99.9773C35.9547 100.009 36.0498 100.026 36.1559 100.026C36.2601 100.026 36.3505 100.01 36.4272 99.9801C36.5049 99.9498 36.565 99.9077 36.6076 99.8537C36.6502 99.7997 36.6715 99.7377 36.6715 99.6676C36.6715 99.6023 36.6521 99.5473 36.6133 99.5028C36.5754 99.4583 36.5195 99.4205 36.4457 99.3892C36.3728 99.358 36.2833 99.3295 36.1772 99.304L35.8604 99.2244C35.6152 99.1648 35.4215 99.0715 35.2795 98.9446C35.1374 98.8177 35.0669 98.6468 35.0678 98.4318C35.0669 98.2557 35.1138 98.1018 35.2085 97.9702C35.3041 97.8385 35.4353 97.7358 35.6019 97.6619C35.7686 97.5881 35.958 97.5511 36.1701 97.5511C36.386 97.5511 36.5745 97.5881 36.7354 97.6619C36.8974 97.7358 37.0233 97.8385 37.1133 97.9702C37.2032 98.1018 37.2496 98.2543 37.2525 98.4276H36.663ZM38.8295 100.564C38.5852 100.563 38.375 100.503 38.1989 100.384C38.0237 100.264 37.8887 100.091 37.794 99.8651C37.7003 99.6387 37.6539 99.3665 37.6548 99.0483C37.6548 98.7311 37.7017 98.4607 37.7955 98.2372C37.8902 98.0137 38.0251 97.8437 38.2003 97.7273C38.3764 97.6098 38.5862 97.5511 38.8295 97.5511C39.0729 97.5511 39.2822 97.6098 39.4574 97.7273C39.6335 97.8447 39.7689 98.0152 39.8636 98.2386C39.9583 98.4612 40.0052 98.7311 40.0043 99.0483C40.0043 99.3674 39.9569 99.6402 39.8622 99.8665C39.7685 100.093 39.634 100.266 39.4588 100.385C39.2836 100.504 39.0739 100.564 38.8295 100.564ZM38.8295 100.054C38.9962 100.054 39.1293 99.9702 39.2287 99.8026C39.3281 99.6349 39.3774 99.3835 39.3764 99.0483C39.3764 98.8277 39.3537 98.6439 39.3082 98.4972C39.2637 98.3504 39.2003 98.2401 39.1179 98.1662C39.0365 98.0923 38.9403 98.0554 38.8295 98.0554C38.6638 98.0554 38.5313 98.1383 38.4318 98.304C38.3324 98.4697 38.2822 98.7178 38.2812 99.0483C38.2812 99.2718 38.3035 99.4583 38.348 99.608C38.3935 99.7566 38.4574 99.8684 38.5398 99.9432C38.6222 100.017 38.7188 100.054 38.8295 100.054Z" fill="black"/>
<path d="M30.1674 11.5639C29.9231 11.563 29.7129 11.5028 29.5368 11.3835C29.3616 11.2642 29.2266 11.0914 29.1319 10.8651C29.0382 10.6387 28.9918 10.3665 28.9927 10.0483C28.9927 9.73106 29.0396 9.4607 29.1333 9.23722C29.228 9.01373 29.363 8.84375 29.5382 8.72727C29.7143 8.60985 29.9241 8.55114 30.1674 8.55114C30.4108 8.55114 30.6201 8.60985 30.7953 8.72727C30.9714 8.8447 31.1068 9.01515 31.2015 9.23864C31.2962 9.46117 31.3431 9.73106 31.3422 10.0483C31.3422 10.3674 31.2948 10.6402 31.2001 10.8665C31.1064 11.0928 30.9719 11.2656 30.7967 11.3849C30.6215 11.5043 30.4118 11.5639 30.1674 11.5639ZM30.1674 11.054C30.3341 11.054 30.4672 10.9702 30.5666 10.8026C30.666 10.6349 30.7153 10.3835 30.7143 10.0483C30.7143 9.82765 30.6916 9.64394 30.6461 9.49716C30.6016 9.35038 30.5382 9.24006 30.4558 9.16619C30.3743 9.09233 30.2782 9.0554 30.1674 9.0554C30.0017 9.0554 29.8691 9.13826 29.7697 9.30398C29.6703 9.4697 29.6201 9.7178 29.6191 10.0483C29.6191 10.2718 29.6414 10.4583 29.6859 10.608C29.7314 10.7566 29.7953 10.8684 29.8777 10.9432C29.96 11.017 30.0566 11.054 30.1674 11.054ZM32.8659 11.5398C32.6472 11.5398 32.4526 11.5043 32.2821 11.4332C32.1126 11.3613 31.9796 11.2633 31.883 11.1392C31.7864 11.0152 31.7381 10.8745 31.7381 10.7173C31.7381 10.5961 31.7656 10.4848 31.8205 10.3835C31.8764 10.2812 31.9521 10.1965 32.0478 10.1293C32.1434 10.0611 32.2504 10.0175 32.3688 9.99858V9.97869C32.2135 9.94744 32.0875 9.87216 31.9909 9.75284C31.8944 9.63258 31.8461 9.4929 31.8461 9.33381C31.8461 9.18324 31.8901 9.04924 31.9782 8.93182C32.0662 8.81345 32.187 8.72064 32.3404 8.65341C32.4947 8.58523 32.6699 8.55114 32.8659 8.55114C33.062 8.55114 33.2367 8.58523 33.3901 8.65341C33.5444 8.72159 33.6657 8.81487 33.7537 8.93324C33.8418 9.05066 33.8863 9.18419 33.8873 9.33381C33.8863 9.49384 33.8371 9.63352 33.7395 9.75284C33.642 9.87216 33.517 9.94744 33.3645 9.97869V9.99858C33.481 10.0175 33.5866 10.0611 33.6813 10.1293C33.7769 10.1965 33.8527 10.2812 33.9086 10.3835C33.9654 10.4848 33.9943 10.5961 33.9952 10.7173C33.9943 10.8745 33.9455 11.0152 33.8489 11.1392C33.7523 11.2633 33.6188 11.3613 33.4483 11.4332C33.2788 11.5043 33.0847 11.5398 32.8659 11.5398ZM32.8659 11.0881C32.9635 11.0881 33.0487 11.0705 33.1216 11.0355C33.1945 10.9995 33.2514 10.9503 33.2921 10.8878C33.3337 10.8243 33.3546 10.7514 33.3546 10.669C33.3546 10.5848 33.3333 10.5104 33.2907 10.446C33.248 10.3807 33.1903 10.3295 33.1174 10.2926C33.0444 10.2547 32.9606 10.2358 32.8659 10.2358C32.7722 10.2358 32.6884 10.2547 32.6145 10.2926C32.5407 10.3295 32.4824 10.3807 32.4398 10.446C32.3981 10.5104 32.3773 10.5848 32.3773 10.669C32.3773 10.7514 32.3977 10.8243 32.4384 10.8878C32.4791 10.9503 32.5364 10.9995 32.6103 11.0355C32.6841 11.0705 32.7694 11.0881 32.8659 11.0881ZM32.8659 9.78835C32.9474 9.78835 33.0198 9.77178 33.0833 9.73864C33.1467 9.70549 33.1964 9.65956 33.2324 9.60085C33.2684 9.54214 33.2864 9.47443 33.2864 9.39773C33.2864 9.32197 33.2684 9.25568 33.2324 9.19886C33.1964 9.1411 33.1472 9.09612 33.0847 9.06392C33.0222 9.03078 32.9493 9.0142 32.8659 9.0142C32.7836 9.0142 32.7106 9.03078 32.6472 9.06392C32.5837 9.09612 32.534 9.1411 32.498 9.19886C32.463 9.25568 32.4455 9.32197 32.4455 9.39773C32.4455 9.47443 32.4635 9.54214 32.4995 9.60085C32.5355 9.65956 32.5852 9.70549 32.6486 9.73864C32.7121 9.77178 32.7845 9.78835 32.8659 9.78835ZM34.4423 11.5V8.59091H35.6071C35.8211 8.59091 35.9996 8.62263 36.1426 8.68608C36.2856 8.74953 36.3931 8.83759 36.465 8.95028C36.537 9.06203 36.573 9.19081 36.573 9.33665C36.573 9.45028 36.5502 9.55019 36.5048 9.63636C36.4593 9.72159 36.3968 9.79167 36.3173 9.84659C36.2387 9.90057 36.1487 9.93892 36.0474 9.96165V9.99006C36.1582 9.99479 36.2619 10.026 36.3585 10.0838C36.456 10.1416 36.5351 10.2225 36.5957 10.3267C36.6563 10.4299 36.6866 10.553 36.6866 10.696C36.6866 10.8504 36.6483 10.9882 36.5716 11.1094C36.4958 11.2296 36.3836 11.3248 36.2349 11.3949C36.0862 11.465 35.903 11.5 35.6852 11.5H34.4423ZM35.0574 10.9972H35.5588C35.7302 10.9972 35.8552 10.9645 35.9338 10.8991C36.0124 10.8329 36.0517 10.7448 36.0517 10.6349C36.0517 10.5545 36.0323 10.4834 35.9934 10.4219C35.9546 10.3603 35.8992 10.312 35.8272 10.277C35.7562 10.242 35.6715 10.2244 35.573 10.2244H35.0574V10.9972ZM35.0574 9.80824H35.5133C35.5976 9.80824 35.6724 9.79356 35.7377 9.7642C35.804 9.7339 35.8561 9.69129 35.894 9.63636C35.9328 9.58144 35.9522 9.51562 35.9522 9.43892C35.9522 9.33381 35.9148 9.24905 35.84 9.18466C35.7662 9.12027 35.661 9.08807 35.5247 9.08807H35.0574V9.80824ZM38.665 9.42756C38.6536 9.31297 38.6048 9.22396 38.5186 9.16051C38.4325 9.09706 38.3155 9.06534 38.1678 9.06534C38.0674 9.06534 37.9827 9.07955 37.9135 9.10795C37.8444 9.13542 37.7914 9.17377 37.7544 9.22301C37.7185 9.27225 37.7005 9.32812 37.7005 9.39062C37.6986 9.44271 37.7095 9.48816 37.7331 9.52699C37.7578 9.56581 37.7914 9.59943 37.834 9.62784C37.8766 9.6553 37.9258 9.67945 37.9817 9.70028C38.0376 9.72017 38.0972 9.73722 38.1607 9.75142L38.4221 9.81392C38.5489 9.84233 38.6654 9.88021 38.7715 9.92756C38.8775 9.97491 38.9694 10.0331 39.0471 10.1023C39.1247 10.1714 39.1848 10.2528 39.2275 10.3466C39.271 10.4403 39.2933 10.5478 39.2942 10.669C39.2933 10.8471 39.2478 11.0014 39.1578 11.1321C39.0688 11.2618 38.94 11.3627 38.7715 11.4347C38.6039 11.5057 38.4017 11.5412 38.165 11.5412C37.9301 11.5412 37.7256 11.5052 37.5513 11.4332C37.378 11.3613 37.2426 11.2547 37.1451 11.1136C37.0485 10.9716 36.9978 10.7959 36.9931 10.5866H37.5882C37.5949 10.6842 37.6228 10.7656 37.6721 10.831C37.7222 10.8954 37.789 10.9441 37.8723 10.9773C37.9566 11.0095 38.0518 11.0256 38.1578 11.0256C38.262 11.0256 38.3525 11.0104 38.4292 10.9801C38.5068 10.9498 38.5669 10.9077 38.6096 10.8537C38.6522 10.7997 38.6735 10.7377 38.6735 10.6676C38.6735 10.6023 38.6541 10.5473 38.6152 10.5028C38.5774 10.4583 38.5215 10.4205 38.4476 10.3892C38.3747 10.358 38.2852 10.3295 38.1792 10.304L37.8624 10.2244C37.6171 10.1648 37.4235 10.0715 37.2814 9.9446C37.1394 9.81771 37.0688 9.64678 37.0698 9.43182C37.0688 9.25568 37.1157 9.1018 37.2104 8.97017C37.306 8.83854 37.4372 8.7358 37.6039 8.66193C37.7705 8.58807 37.9599 8.55114 38.1721 8.55114C38.388 8.55114 38.5764 8.58807 38.7374 8.66193C38.8993 8.7358 39.0253 8.83854 39.1152 8.97017C39.2052 9.1018 39.2516 9.25426 39.2544 9.42756H38.665ZM40.8315 11.5639C40.5872 11.563 40.377 11.5028 40.2008 11.3835C40.0256 11.2642 39.8907 11.0914 39.796 10.8651C39.7022 10.6387 39.6558 10.3665 39.6568 10.0483C39.6568 9.73106 39.7037 9.4607 39.7974 9.23722C39.8921 9.01373 40.027 8.84375 40.2022 8.72727C40.3784 8.60985 40.5881 8.55114 40.8315 8.55114C41.0749 8.55114 41.2842 8.60985 41.4593 8.72727C41.6355 8.8447 41.7709 9.01515 41.8656 9.23864C41.9603 9.46117 42.0072 9.73106 42.0062 10.0483C42.0062 10.3674 41.9589 10.6402 41.8642 10.8665C41.7704 11.0928 41.6359 11.2656 41.4608 11.3849C41.2856 11.5043 41.0758 11.5639 40.8315 11.5639ZM40.8315 11.054C40.9982 11.054 41.1312 10.9702 41.2306 10.8026C41.3301 10.6349 41.3793 10.3835 41.3784 10.0483C41.3784 9.82765 41.3556 9.64394 41.3102 9.49716C41.2657 9.35038 41.2022 9.24006 41.1199 9.16619C41.0384 9.09233 40.9423 9.0554 40.8315 9.0554C40.6658 9.0554 40.5332 9.13826 40.4338 9.30398C40.3343 9.4697 40.2842 9.7178 40.2832 10.0483C40.2832 10.2718 40.3055 10.4583 40.35 10.608C40.3954 10.7566 40.4593 10.8684 40.5417 10.9432C40.6241 11.017 40.7207 11.054 40.8315 11.054Z" fill="black"/>
<path d="M7.22994 220.564C6.98562 220.563 6.77539 220.503 6.59925 220.384C6.42406 220.264 6.28912 220.091 6.19442 219.865C6.10067 219.639 6.05427 219.366 6.05522 219.048C6.05522 218.731 6.1021 218.461 6.19585 218.237C6.29054 218.014 6.42549 217.844 6.60067 217.727C6.77681 217.61 6.98656 217.551 7.22994 217.551C7.47331 217.551 7.68259 217.61 7.85778 217.727C8.03391 217.845 8.16933 218.015 8.26403 218.239C8.35872 218.461 8.4056 218.731 8.40465 219.048C8.40465 219.367 8.3573 219.64 8.26261 219.866C8.16886 220.093 8.03439 220.266 7.8592 220.385C7.68401 220.504 7.47425 220.564 7.22994 220.564ZM7.22994 220.054C7.3966 220.054 7.52965 219.97 7.62908 219.803C7.72852 219.635 7.77776 219.384 7.77681 219.048C7.77681 218.828 7.75408 218.644 7.70863 218.497C7.66412 218.35 7.60067 218.24 7.51829 218.166C7.43685 218.092 7.34073 218.055 7.22994 218.055C7.06422 218.055 6.93164 218.138 6.83221 218.304C6.73278 218.47 6.68259 218.718 6.68164 219.048C6.68164 219.272 6.70389 219.458 6.7484 219.608C6.79386 219.757 6.85778 219.868 6.94016 219.943C7.02255 220.017 7.11914 220.054 7.22994 220.054ZM8.84322 220.5V220.057L9.87873 219.098C9.9668 219.013 10.0407 218.936 10.1003 218.868C10.1609 218.8 10.2069 218.733 10.2381 218.668C10.2694 218.601 10.285 218.53 10.285 218.453C10.285 218.368 10.2656 218.295 10.2267 218.233C10.1879 218.17 10.1349 218.123 10.0676 218.089C10.0004 218.055 9.92418 218.038 9.83896 218.038C9.74994 218.038 9.67229 218.056 9.606 218.092C9.53971 218.128 9.48858 218.18 9.45259 218.247C9.41661 218.314 9.39862 218.394 9.39862 218.487H8.81481C8.81481 218.297 8.8579 218.132 8.94407 217.991C9.03024 217.851 9.15098 217.743 9.30629 217.666C9.46159 217.589 9.64057 217.551 9.84322 217.551C10.0516 217.551 10.2329 217.588 10.3873 217.662C10.5426 217.735 10.6633 217.836 10.7495 217.966C10.8356 218.096 10.8787 218.244 10.8787 218.412C10.8787 218.522 10.8569 218.63 10.8134 218.737C10.7708 218.844 10.6945 218.963 10.5847 219.094C10.4748 219.223 10.32 219.379 10.1202 219.561L9.69549 219.977V219.997H10.9171V220.5H8.84322ZM11.3798 220.5V217.591H12.5446C12.7586 217.591 12.9371 217.623 13.0801 217.686C13.2231 217.75 13.3306 217.838 13.4025 217.95C13.4745 218.062 13.5105 218.191 13.5105 218.337C13.5105 218.45 13.4877 218.55 13.4423 218.636C13.3968 218.722 13.3343 218.792 13.2548 218.847C13.1762 218.901 13.0862 218.939 12.9849 218.962V218.99C13.0957 218.995 13.1994 219.026 13.296 219.084C13.3935 219.142 13.4726 219.223 13.5332 219.327C13.5938 219.43 13.6241 219.553 13.6241 219.696C13.6241 219.85 13.5858 219.988 13.5091 220.109C13.4333 220.23 13.3211 220.325 13.1724 220.395C13.0237 220.465 12.8405 220.5 12.6227 220.5H11.3798ZM11.9949 219.997H12.4963C12.6677 219.997 12.7927 219.964 12.8713 219.899C12.9499 219.833 12.9892 219.745 12.9892 219.635C12.9892 219.554 12.9698 219.483 12.9309 219.422C12.8921 219.36 12.8367 219.312 12.7647 219.277C12.6937 219.242 12.609 219.224 12.5105 219.224H11.9949V219.997ZM11.9949 218.808H12.4508C12.5351 218.808 12.6099 218.794 12.6752 218.764C12.7415 218.734 12.7936 218.691 12.8315 218.636C12.8703 218.581 12.8897 218.516 12.8897 218.439C12.8897 218.334 12.8523 218.249 12.7775 218.185C12.7037 218.12 12.5985 218.088 12.4622 218.088H11.9949V218.808ZM15.6025 218.428C15.5911 218.313 15.5423 218.224 15.4561 218.161C15.37 218.097 15.253 218.065 15.1053 218.065C15.0049 218.065 14.9202 218.08 14.851 218.108C14.7819 218.135 14.7289 218.174 14.6919 218.223C14.656 218.272 14.638 218.328 14.638 218.391C14.6361 218.443 14.647 218.488 14.6706 218.527C14.6953 218.566 14.7289 218.599 14.7715 218.628C14.8141 218.655 14.8633 218.679 14.9192 218.7C14.9751 218.72 15.0347 218.737 15.0982 218.751L15.3596 218.814C15.4864 218.842 15.6029 218.88 15.709 218.928C15.815 218.975 15.9069 219.033 15.9846 219.102C16.0622 219.171 16.1223 219.253 16.165 219.347C16.2085 219.44 16.2308 219.548 16.2317 219.669C16.2308 219.847 16.1853 220.001 16.0953 220.132C16.0063 220.262 15.8775 220.363 15.709 220.435C15.5414 220.506 15.3392 220.541 15.1025 220.541C14.8676 220.541 14.6631 220.505 14.4888 220.433C14.3155 220.361 14.1801 220.255 14.0826 220.114C13.986 219.972 13.9353 219.796 13.9306 219.587H14.5257C14.5324 219.684 14.5603 219.766 14.6096 219.831C14.6597 219.895 14.7265 219.944 14.8098 219.977C14.8941 220.009 14.9893 220.026 15.0953 220.026C15.1995 220.026 15.29 220.01 15.3667 219.98C15.4443 219.95 15.5044 219.908 15.5471 219.854C15.5897 219.8 15.611 219.738 15.611 219.668C15.611 219.602 15.5916 219.547 15.5527 219.503C15.5149 219.458 15.459 219.42 15.3851 219.389C15.3122 219.358 15.2227 219.33 15.1167 219.304L14.7999 219.224C14.5546 219.165 14.361 219.071 14.2189 218.945C14.0769 218.818 14.0063 218.647 14.0073 218.432C14.0063 218.256 14.0532 218.102 14.1479 217.97C14.2435 217.839 14.3747 217.736 14.5414 217.662C14.708 217.588 14.8974 217.551 15.1096 217.551C15.3255 217.551 15.5139 217.588 15.6749 217.662C15.8368 217.736 15.9628 217.839 16.0527 217.97C16.1427 218.102 16.1891 218.254 16.1919 218.428H15.6025ZM17.769 220.564C17.5247 220.563 17.3145 220.503 17.1383 220.384C16.9631 220.264 16.8282 220.091 16.7335 219.865C16.6397 219.639 16.5933 219.366 16.5943 219.048C16.5943 218.731 16.6412 218.461 16.7349 218.237C16.8296 218.014 16.9645 217.844 17.1397 217.727C17.3159 217.61 17.5256 217.551 17.769 217.551C18.0124 217.551 18.2217 217.61 18.3968 217.727C18.573 217.845 18.7084 218.015 18.8031 218.239C18.8978 218.461 18.9447 218.731 18.9437 219.048C18.9437 219.367 18.8964 219.64 18.8017 219.866C18.7079 220.093 18.5734 220.266 18.3983 220.385C18.2231 220.504 18.0133 220.564 17.769 220.564ZM17.769 220.054C17.9357 220.054 18.0687 219.97 18.1681 219.803C18.2676 219.635 18.3168 219.384 18.3159 219.048C18.3159 218.828 18.2931 218.644 18.2477 218.497C18.2032 218.35 18.1397 218.24 18.0574 218.166C17.9759 218.092 17.8798 218.055 17.769 218.055C17.6033 218.055 17.4707 218.138 17.3713 218.304C17.2718 218.47 17.2217 218.718 17.2207 219.048C17.2207 219.272 17.243 219.458 17.2875 219.608C17.3329 219.757 17.3968 219.868 17.4792 219.943C17.5616 220.017 17.6582 220.054 17.769 220.054Z" fill="black"/>
<path d="M7.20064 130.564C6.95632 130.563 6.74609 130.503 6.56996 130.384C6.39477 130.264 6.25982 130.091 6.16513 129.865C6.07138 129.639 6.02498 129.366 6.02592 129.048C6.02592 128.731 6.0728 128.461 6.16655 128.237C6.26125 128.014 6.39619 127.844 6.57138 127.727C6.74751 127.61 6.95727 127.551 7.20064 127.551C7.44401 127.551 7.65329 127.61 7.82848 127.727C8.00462 127.845 8.14003 128.015 8.23473 128.239C8.32943 128.461 8.3763 128.731 8.37536 129.048C8.37536 129.367 8.32801 129.64 8.23331 129.866C8.13956 130.093 8.00509 130.266 7.8299 130.385C7.65471 130.504 7.44496 130.564 7.20064 130.564ZM7.20064 130.054C7.36731 130.054 7.50036 129.97 7.59979 129.803C7.69922 129.635 7.74846 129.384 7.74751 129.048C7.74751 128.828 7.72479 128.644 7.67933 128.497C7.63482 128.35 7.57138 128.24 7.48899 128.166C7.40755 128.092 7.31143 128.055 7.20064 128.055C7.03492 128.055 6.90234 128.138 6.80291 128.304C6.70348 128.47 6.65329 128.718 6.65234 129.048C6.65234 129.272 6.6746 129.458 6.71911 129.608C6.76456 129.757 6.82848 129.868 6.91087 129.943C6.99325 130.017 7.08984 130.054 7.20064 130.054ZM9.87642 130.54C9.67566 130.54 9.49669 130.503 9.33949 130.429C9.18324 130.355 9.05919 130.253 8.96733 130.124C8.87547 129.994 8.82765 129.845 8.82386 129.678H9.42045C9.42708 129.79 9.47443 129.882 9.5625 129.952C9.65057 130.022 9.75521 130.057 9.87642 130.057C9.97301 130.057 10.0582 130.036 10.1321 129.993C10.2069 129.949 10.2652 129.889 10.3068 129.812C10.3494 129.735 10.3707 129.646 10.3707 129.545C10.3707 129.443 10.349 129.353 10.3054 129.276C10.2628 129.198 10.2036 129.137 10.1278 129.094C10.0521 129.05 9.96544 129.028 9.8679 129.027C9.78267 129.027 9.69981 129.045 9.61932 129.08C9.53977 129.115 9.47775 129.162 9.43324 129.223L8.88636 129.125L9.02415 127.591H10.8026V128.094H9.53125L9.45597 128.822H9.47301C9.52415 128.75 9.60133 128.691 9.70455 128.643C9.80777 128.596 9.9233 128.572 10.0511 128.572C10.2263 128.572 10.3826 128.614 10.5199 128.696C10.6572 128.778 10.7656 128.892 10.8452 129.036C10.9247 129.179 10.964 129.343 10.9631 129.53C10.964 129.726 10.9186 129.9 10.8267 130.053C10.7358 130.204 10.6084 130.323 10.4446 130.411C10.2817 130.497 10.0923 130.54 9.87642 130.54ZM11.4091 130.5V127.591H12.5739C12.7879 127.591 12.9664 127.623 13.1094 127.686C13.2524 127.75 13.3598 127.838 13.4318 127.95C13.5038 128.062 13.5398 128.191 13.5398 128.337C13.5398 128.45 13.517 128.55 13.4716 128.636C13.4261 128.722 13.3636 128.792 13.2841 128.847C13.2055 128.901 13.1155 128.939 13.0142 128.962V128.99C13.125 128.995 13.2287 129.026 13.3253 129.084C13.4228 129.142 13.5019 129.223 13.5625 129.327C13.6231 129.43 13.6534 129.553 13.6534 129.696C13.6534 129.85 13.6151 129.988 13.5384 130.109C13.4626 130.23 13.3504 130.325 13.2017 130.395C13.053 130.465 12.8698 130.5 12.652 130.5H11.4091ZM12.0241 129.997H12.5256C12.697 129.997 12.822 129.964 12.9006 129.899C12.9792 129.833 13.0185 129.745 13.0185 129.635C13.0185 129.554 12.9991 129.483 12.9602 129.422C12.9214 129.36 12.866 129.312 12.794 129.277C12.723 129.242 12.6383 129.224 12.5398 129.224H12.0241V129.997ZM12.0241 128.808H12.4801C12.5644 128.808 12.6392 128.794 12.7045 128.764C12.7708 128.734 12.8229 128.691 12.8608 128.636C12.8996 128.581 12.919 128.516 12.919 128.439C12.919 128.334 12.8816 128.249 12.8068 128.185C12.733 128.12 12.6278 128.088 12.4915 128.088H12.0241V128.808ZM15.6317 128.428C15.6204 128.313 15.5716 128.224 15.4854 128.161C15.3993 128.097 15.2823 128.065 15.1346 128.065C15.0342 128.065 14.9495 128.08 14.8803 128.108C14.8112 128.135 14.7582 128.174 14.7212 128.223C14.6853 128.272 14.6673 128.328 14.6673 128.391C14.6654 128.443 14.6763 128.488 14.6999 128.527C14.7246 128.566 14.7582 128.599 14.8008 128.628C14.8434 128.655 14.8926 128.679 14.9485 128.7C15.0044 128.72 15.064 128.737 15.1275 128.751L15.3888 128.814C15.5157 128.842 15.6322 128.88 15.7383 128.928C15.8443 128.975 15.9362 129.033 16.0138 129.102C16.0915 129.171 16.1516 129.253 16.1942 129.347C16.2378 129.44 16.2601 129.548 16.261 129.669C16.2601 129.847 16.2146 130.001 16.1246 130.132C16.0356 130.262 15.9068 130.363 15.7383 130.435C15.5707 130.506 15.3685 130.541 15.1317 130.541C14.8969 130.541 14.6924 130.505 14.5181 130.433C14.3448 130.361 14.2094 130.255 14.1119 130.114C14.0153 129.972 13.9646 129.796 13.9599 129.587H14.555C14.5617 129.684 14.5896 129.766 14.6388 129.831C14.689 129.895 14.7558 129.944 14.8391 129.977C14.9234 130.009 15.0186 130.026 15.1246 130.026C15.2288 130.026 15.3192 130.01 15.396 129.98C15.4736 129.95 15.5337 129.908 15.5763 129.854C15.619 129.8 15.6403 129.738 15.6403 129.668C15.6403 129.602 15.6209 129.547 15.582 129.503C15.5442 129.458 15.4883 129.42 15.4144 129.389C15.3415 129.358 15.252 129.33 15.146 129.304L14.8292 129.224C14.5839 129.165 14.3903 129.071 14.2482 128.945C14.1062 128.818 14.0356 128.647 14.0366 128.432C14.0356 128.256 14.0825 128.102 14.1772 127.97C14.2728 127.839 14.404 127.736 14.5707 127.662C14.7373 127.588 14.9267 127.551 15.1388 127.551C15.3548 127.551 15.5432 127.588 15.7042 127.662C15.8661 127.736 15.9921 127.839 16.082 127.97C16.172 128.102 16.2184 128.254 16.2212 128.428H15.6317ZM17.7983 130.564C17.554 130.563 17.3438 130.503 17.1676 130.384C16.9924 130.264 16.8575 130.091 16.7628 129.865C16.669 129.639 16.6226 129.366 16.6236 129.048C16.6236 128.731 16.6705 128.461 16.7642 128.237C16.8589 128.014 16.9938 127.844 17.169 127.727C17.3452 127.61 17.5549 127.551 17.7983 127.551C18.0417 127.551 18.2509 127.61 18.4261 127.727C18.6023 127.845 18.7377 128.015 18.8324 128.239C18.9271 128.461 18.974 128.731 18.973 129.048C18.973 129.367 18.9257 129.64 18.831 129.866C18.7372 130.093 18.6027 130.266 18.4276 130.385C18.2524 130.504 18.0426 130.564 17.7983 130.564ZM17.7983 130.054C17.965 130.054 18.098 129.97 18.1974 129.803C18.2969 129.635 18.3461 129.384 18.3452 129.048C18.3452 128.828 18.3224 128.644 18.277 128.497C18.2325 128.35 18.169 128.24 18.0866 128.166C18.0052 128.092 17.9091 128.055 17.7983 128.055C17.6326 128.055 17.5 128.138 17.4006 128.304C17.3011 128.47 17.2509 128.718 17.25 129.048C17.25 129.272 17.2723 129.458 17.3168 129.608C17.3622 129.757 17.4261 129.868 17.5085 129.943C17.5909 130.017 17.6875 130.054 17.7983 130.054Z" fill="black"/>
</svg>
